ISO-10303-21;
HEADER;
FILE_DESCRIPTION (( 'STEP AP214' ),
    '1' );
FILE_NAME ('4.1mm spacer.STEP',
    '2025-11-13T21:07:48',
    ( '' ),
    ( '' ),
    'SwSTEP 2.0',
    'SolidWorks 2025',
    '' );
FILE_SCHEMA (( 'AUTOMOTIVE_DESIGN' ));
ENDSEC;

DATA;
#1 = EDGE_CURVE ( 'NONE', #117, #167, #113, .T. ) ;
#2 = CARTESIAN_POINT ( 'NONE',  ( 0.000000000000000000, 0.000000000000000000, -4.750000000000000000 ) ) ;
#3 = APPLICATION_CONTEXT ( 'automotive_design' ) ;
#4 = LINE ( 'NONE', #137, #175 ) ;
#5 = FACE_BOUND ( 'NONE', #99, .T. ) ;
#6 = EDGE_CURVE ( 'NONE', #145, #167, #4, .T. ) ;
#7 = PLANE ( 'NONE',  #130 ) ;
#8 = AXIS2_PLACEMENT_3D ( 'NONE', #154, #185, #103 ) ;
#9 = DIRECTION ( 'NONE',  ( -0.000000000000000000, -1.000000000000000000, -0.000000000000000000 ) ) ;
#10 = ORIENTED_EDGE ( 'NONE', *, *, #83, .T. ) ;
#11 =( LENGTH_UNIT ( ) NAMED_UNIT ( * ) SI_UNIT ( .MILLI., .METRE. ) );
#12 = ADVANCED_FACE ( 'NONE', ( #172, #187 ), #7, .F. ) ;
#13 = EDGE_CURVE ( 'NONE', #165, #63, #71, .T. ) ;
#14 = ORIENTED_EDGE ( 'NONE', *, *, #24, .F. ) ;
#15 = DIRECTION ( 'NONE',  ( -0.000000000000000000, -1.000000000000000000, -0.000000000000000000 ) ) ;
#16 = CIRCLE ( 'NONE', #115, 4.099999999999999645 ) ;
#17 = CYLINDRICAL_SURFACE ( 'NONE', #61, 4.099999999999999645 ) ;
#18 = CARTESIAN_POINT ( 'NONE',  ( 0.000000000000000000, 4.099999999999999645, 0.000000000000000000 ) ) ;
#19 = ORIENTED_EDGE ( 'NONE', *, *, #34, .T. ) ;
#20 = SURFACE_STYLE_FILL_AREA ( #173 ) ;
#21 = CARTESIAN_POINT ( 'NONE',  ( 0.000000000000000000, 4.099999999999999645, 0.000000000000000000 ) ) ;
#22 = COLOUR_RGB ( '',0.7921568627450980005, 0.8196078431372548767, 0.9333333333333333481 ) ;
#23 = DIRECTION ( 'NONE',  ( -0.000000000000000000, -1.000000000000000000, -0.000000000000000000 ) ) ;
#24 = EDGE_CURVE ( 'NONE', #198, #37, #85, .T. ) ;
#25 = CARTESIAN_POINT ( 'NONE',  ( 5.021051876504147385E-16, 0.000000000000000000, 4.099999999999999645 ) ) ;
#26 = UNCERTAINTY_MEASURE_WITH_UNIT (LENGTH_MEASURE( 1.000000000000000082E-05 ), #11, 'distance_accuracy_value', 'NONE');
#27 = AXIS2_PLACEMENT_3D ( 'NONE', #21, #123, #47 ) ;
#28 =( NAMED_UNIT ( * ) SI_UNIT ( $, .STERADIAN. ) SOLID_ANGLE_UNIT ( ) );
#29 = DIRECTION ( 'NONE',  ( 0.000000000000000000, 0.000000000000000000, 1.000000000000000000 ) ) ;
#30 =( NAMED_UNIT ( * ) PLANE_ANGLE_UNIT ( ) SI_UNIT ( $, .RADIAN. ) );
#31 = DIRECTION ( 'NONE',  ( 0.000000000000000000, 1.000000000000000000, 0.000000000000000000 ) ) ;
#32 = LINE ( 'NONE', #196, #155 ) ;
#33 = CARTESIAN_POINT ( 'NONE',  ( 0.000000000000000000, 4.099999999999999645, -4.099999999999999645 ) ) ;
#34 = EDGE_CURVE ( 'NONE', #63, #165, #98, .T. ) ;
#35 = ORIENTED_EDGE ( 'NONE', *, *, #6, .F. ) ;
#36 = STYLED_ITEM ( 'NONE', ( #76 ), #60 ) ;
#37 = VERTEX_POINT ( 'NONE', #174 ) ;
#38 = ORIENTED_EDGE ( 'NONE', *, *, #1, .T. ) ;
#39 = ORIENTED_EDGE ( 'NONE', *, *, #134, .F. ) ;
#40 = VECTOR ( 'NONE', #9, 1000.000000000000000 ) ;
#41 = CARTESIAN_POINT ( 'NONE',  ( 0.000000000000000000, 4.099999999999999645, 0.000000000000000000 ) ) ;
#42 = CARTESIAN_POINT ( 'NONE',  ( 0.000000000000000000, 4.099999999999999645, 0.000000000000000000 ) ) ;
#43 = DIRECTION ( 'NONE',  ( 0.000000000000000000, 0.000000000000000000, 1.000000000000000000 ) ) ;
#44 =( GEOMETRIC_REPRESENTATION_CONTEXT ( 3 ) GLOBAL_UNCERTAINTY_ASSIGNED_CONTEXT ( ( #64 ) ) GLOBAL_UNIT_ASSIGNED_CONTEXT ( ( #121, #30, #28 ) ) REPRESENTATION_CONTEXT ( 'NONE', 'WORKASPACE' ) );
#45 = PLANE ( 'NONE',  #119 ) ;
#46 = CARTESIAN_POINT ( 'NONE',  ( 0.000000000000000000, 0.000000000000000000, 0.000000000000000000 ) ) ;
#47 = DIRECTION ( 'NONE',  ( 0.000000000000000000, 0.000000000000000000, -1.000000000000000000 ) ) ;
#48 = EDGE_LOOP ( 'NONE', ( #80, #10 ) ) ;
#49 = DIRECTION ( 'NONE',  ( 0.000000000000000000, 0.000000000000000000, 1.000000000000000000 ) ) ;
#50 = DIRECTION ( 'NONE',  ( 0.000000000000000000, 1.000000000000000000, 0.000000000000000000 ) ) ;
#51 = EDGE_LOOP ( 'NONE', ( #39, #14, #180, #19 ) ) ;
#52 = DIRECTION ( 'NONE',  ( -0.000000000000000000, -1.000000000000000000, -0.000000000000000000 ) ) ;
#53 = CARTESIAN_POINT ( 'NONE',  ( 0.000000000000000000, 0.000000000000000000, 0.000000000000000000 ) ) ;
#54 = CARTESIAN_POINT ( 'NONE',  ( 0.000000000000000000, 0.000000000000000000, 0.000000000000000000 ) ) ;
#55 = EDGE_LOOP ( 'NONE', ( #157, #133, #183, #94 ) ) ;
#56 = CIRCLE ( 'NONE', #148, 4.099999999999999645 ) ;
#57 = ADVANCED_FACE ( 'NONE', ( #186, #5 ), #45, .T. ) ;
#58 = DIRECTION ( 'NONE',  ( 0.000000000000000000, -0.000000000000000000, 1.000000000000000000 ) ) ;
#59 = CARTESIAN_POINT ( 'NONE',  ( 0.000000000000000000, 0.000000000000000000, 0.000000000000000000 ) ) ;
#60 = MANIFOLD_SOLID_BREP ( 'Boss-Extrude1', #78 ) ;
#61 = AXIS2_PLACEMENT_3D ( 'NONE', #65, #15, #81 ) ;
#62 = CYLINDRICAL_SURFACE ( 'NONE', #67, 4.750000000000000000 ) ;
#63 = VERTEX_POINT ( 'NONE', #2 ) ;
#64 = UNCERTAINTY_MEASURE_WITH_UNIT (LENGTH_MEASURE( 1.000000000000000082E-05 ), #121, 'distance_accuracy_value', 'NONE');
#65 = CARTESIAN_POINT ( 'NONE',  ( 0.000000000000000000, 4.099999999999999645, 0.000000000000000000 ) ) ;
#66 = CARTESIAN_POINT ( 'NONE',  ( 0.000000000000000000, 4.099999999999999645, -4.750000000000000000 ) ) ;
#67 = AXIS2_PLACEMENT_3D ( 'NONE', #107, #108, #146 ) ;
#68 = ORIENTED_EDGE ( 'NONE', *, *, #166, .F. ) ;
#69 = EDGE_LOOP ( 'NONE', ( #35, #149, #73, #68 ) ) ;
#70 = ADVANCED_FACE ( 'NONE', ( #116 ), #151, .F. ) ;
#71 = CIRCLE ( 'NONE', #143, 4.750000000000000000 ) ;
#72 = DIRECTION ( 'NONE',  ( 0.000000000000000000, 1.000000000000000000, 0.000000000000000000 ) ) ;
#73 = ORIENTED_EDGE ( 'NONE', *, *, #182, .T. ) ;
#74 = DIRECTION ( 'NONE',  ( 0.000000000000000000, 0.000000000000000000, 1.000000000000000000 ) ) ;
#75 = SURFACE_STYLE_USAGE ( .BOTH. , #170 ) ;
#76 = PRESENTATION_STYLE_ASSIGNMENT (( #75 ) ) ;
#77 = LINE ( 'NONE', #177, #40 ) ;
#78 = CLOSED_SHELL ( 'NONE', ( #70, #168, #57, #12, #126, #95 ) ) ;
#79 = CARTESIAN_POINT ( 'NONE',  ( 0.000000000000000000, 0.000000000000000000, 0.000000000000000000 ) ) ;
#80 = ORIENTED_EDGE ( 'NONE', *, *, #24, .T. ) ;
#81 = DIRECTION ( 'NONE',  ( 0.000000000000000000, 0.000000000000000000, -1.000000000000000000 ) ) ;
#82 = PRODUCT_RELATED_PRODUCT_CATEGORY ( 'part', '', ( #152 ) ) ;
#83 = EDGE_CURVE ( 'NONE', #37, #198, #161, .T. ) ;
#84 = ADVANCED_BREP_SHAPE_REPRESENTATION ( '4.1mm spacer', ( #60, #178 ), #197 ) ;
#85 = CIRCLE ( 'NONE', #169, 4.750000000000000000 ) ;
#86 = DIRECTION ( 'NONE',  ( 0.000000000000000000, 1.000000000000000000, 0.000000000000000000 ) ) ;
#87 = ORIENTED_EDGE ( 'NONE', *, *, #13, .F. ) ;
#88 = DIRECTION ( 'NONE',  ( 0.000000000000000000, -0.000000000000000000, 1.000000000000000000 ) ) ;
#89 = DIRECTION ( 'NONE',  ( 0.000000000000000000, 1.000000000000000000, 0.000000000000000000 ) ) ;
#90 = APPLICATION_PROTOCOL_DEFINITION ( 'draft international standard', 'automotive_design', 1998, #91 ) ;
#91 = APPLICATION_CONTEXT ( 'automotive_design' ) ;
#92 = CARTESIAN_POINT ( 'NONE',  ( 0.000000000000000000, 4.099999999999999645, 0.000000000000000000 ) ) ;
#93 = CIRCLE ( 'NONE', #181, 4.099999999999999645 ) ;
#94 = ORIENTED_EDGE ( 'NONE', *, *, #182, .F. ) ;
#95 = ADVANCED_FACE ( 'NONE', ( #150 ), #17, .F. ) ;
#96 = EDGE_LOOP ( 'NONE', ( #38, #164 ) ) ;
#97 = EDGE_LOOP ( 'NONE', ( #132, #114, #193, #147 ) ) ;
#98 = CIRCLE ( 'NONE', #199, 4.750000000000000000 ) ;
#99 = EDGE_LOOP ( 'NONE', ( #131, #189 ) ) ;
#100 = MECHANICAL_DESIGN_GEOMETRIC_PRESENTATION_REPRESENTATION (  '', ( #36 ), #44 ) ;
#101 = EDGE_CURVE ( 'NONE', #198, #63, #77, .T. ) ;
#102 = DIRECTION ( 'NONE',  ( 0.000000000000000000, 1.000000000000000000, 0.000000000000000000 ) ) ;
#103 = DIRECTION ( 'NONE',  ( 0.000000000000000000, 0.000000000000000000, -1.000000000000000000 ) ) ;
#104 = PRODUCT_DEFINITION ( 'UNKNOWN', '', #184, #106 ) ;
#105 = FILL_AREA_STYLE_COLOUR ( '', #22 ) ;
#106 = PRODUCT_DEFINITION_CONTEXT ( 'detailed design', #3, 'design' ) ;
#107 = CARTESIAN_POINT ( 'NONE',  ( 0.000000000000000000, 4.099999999999999645, 0.000000000000000000 ) ) ;
#108 = DIRECTION ( 'NONE',  ( -0.000000000000000000, -1.000000000000000000, -0.000000000000000000 ) ) ;
#109 = PRESENTATION_LAYER_ASSIGNMENT (  '', '', ( #36 ) ) ;
#110 = SHAPE_DEFINITION_REPRESENTATION ( #118, #84 ) ;
#111 = FACE_OUTER_BOUND ( 'NONE', #97, .T. ) ;
#112 = DIRECTION ( 'NONE',  ( -0.000000000000000000, -1.000000000000000000, -0.000000000000000000 ) ) ;
#113 = CIRCLE ( 'NONE', #139, 4.099999999999999645 ) ;
#114 = ORIENTED_EDGE ( 'NONE', *, *, #134, .T. ) ;
#115 = AXIS2_PLACEMENT_3D ( 'NONE', #92, #89, #159 ) ;
#116 = FACE_OUTER_BOUND ( 'NONE', #55, .T. ) ;
#117 = VERTEX_POINT ( 'NONE', #129 ) ;
#118 = PRODUCT_DEFINITION_SHAPE ( 'NONE', 'NONE',  #104 ) ;
#119 = AXIS2_PLACEMENT_3D ( 'NONE', #42, #31, #88 ) ;
#120 = DIRECTION ( 'NONE',  ( 0.000000000000000000, 1.000000000000000000, 0.000000000000000000 ) ) ;
#121 =( LENGTH_UNIT ( ) NAMED_UNIT ( * ) SI_UNIT ( .MILLI., .METRE. ) );
#122 = DIRECTION ( 'NONE',  ( 0.000000000000000000, 0.000000000000000000, 1.000000000000000000 ) ) ;
#123 = DIRECTION ( 'NONE',  ( -0.000000000000000000, -1.000000000000000000, -0.000000000000000000 ) ) ;
#124 = AXIS2_PLACEMENT_3D ( 'NONE', #41, #102, #29 ) ;
#125 = CARTESIAN_POINT ( 'NONE',  ( 0.000000000000000000, 4.099999999999999645, -4.099999999999999645 ) ) ;
#126 = ADVANCED_FACE ( 'NONE', ( #176 ), #160, .T. ) ;
#127 = EDGE_LOOP ( 'NONE', ( #162, #87 ) ) ;
#128 = LINE ( 'NONE', #125, #136 ) ;
#129 = CARTESIAN_POINT ( 'NONE',  ( 0.000000000000000000, 0.000000000000000000, -4.099999999999999645 ) ) ;
#130 = AXIS2_PLACEMENT_3D ( 'NONE', #54, #120, #58 ) ;
#131 = ORIENTED_EDGE ( 'NONE', *, *, #195, .F. ) ;
#132 = ORIENTED_EDGE ( 'NONE', *, *, #83, .F. ) ;
#133 = ORIENTED_EDGE ( 'NONE', *, *, #6, .T. ) ;
#134 = EDGE_CURVE ( 'NONE', #37, #165, #32, .T. ) ;
#135 = DIRECTION ( 'NONE',  ( 0.000000000000000000, 0.000000000000000000, 1.000000000000000000 ) ) ;
#136 = VECTOR ( 'NONE', #23, 1000.000000000000000 ) ;
#137 = CARTESIAN_POINT ( 'NONE',  ( 5.021051876504147385E-16, 4.099999999999999645, 4.099999999999999645 ) ) ;
#138 = VERTEX_POINT ( 'NONE', #33 ) ;
#139 = AXIS2_PLACEMENT_3D ( 'NONE', #46, #171, #43 ) ;
#140 = CARTESIAN_POINT ( 'NONE',  ( 0.000000000000000000, 0.000000000000000000, 0.000000000000000000 ) ) ;
#141 = DIRECTION ( 'NONE',  ( 0.000000000000000000, 1.000000000000000000, 0.000000000000000000 ) ) ;
#142 = CARTESIAN_POINT ( 'NONE',  ( 5.021051876504147385E-16, 4.099999999999999645, 4.099999999999999645 ) ) ;
#143 = AXIS2_PLACEMENT_3D ( 'NONE', #140, #72, #135 ) ;
#144 = DIRECTION ( 'NONE',  ( 0.000000000000000000, 0.000000000000000000, 1.000000000000000000 ) ) ;
#145 = VERTEX_POINT ( 'NONE', #142 ) ;
#146 = DIRECTION ( 'NONE',  ( 0.000000000000000000, 0.000000000000000000, -1.000000000000000000 ) ) ;
#147 = ORIENTED_EDGE ( 'NONE', *, *, #101, .F. ) ;
#148 = AXIS2_PLACEMENT_3D ( 'NONE', #79, #141, #144 ) ;
#149 = ORIENTED_EDGE ( 'NONE', *, *, #179, .T. ) ;
#150 = FACE_OUTER_BOUND ( 'NONE', #69, .T. ) ;
#151 = CYLINDRICAL_SURFACE ( 'NONE', #8, 4.099999999999999645 ) ;
#152 = PRODUCT ( '4.1mm spacer', '4.1mm spacer', '', ( #163 ) ) ;
#153 = DIRECTION ( 'NONE',  ( 0.000000000000000000, 1.000000000000000000, 0.000000000000000000 ) ) ;
#154 = CARTESIAN_POINT ( 'NONE',  ( 0.000000000000000000, 4.099999999999999645, 0.000000000000000000 ) ) ;
#155 = VECTOR ( 'NONE', #112, 1000.000000000000000 ) ;
#156 =( NAMED_UNIT ( * ) PLANE_ANGLE_UNIT ( ) SI_UNIT ( $, .RADIAN. ) );
#157 = ORIENTED_EDGE ( 'NONE', *, *, #195, .T. ) ;
#158 = APPLICATION_PROTOCOL_DEFINITION ( 'draft international standard', 'automotive_design', 1998, #3 ) ;
#159 = DIRECTION ( 'NONE',  ( 0.000000000000000000, 0.000000000000000000, 1.000000000000000000 ) ) ;
#160 = CYLINDRICAL_SURFACE ( 'NONE', #27, 4.750000000000000000 ) ;
#161 = CIRCLE ( 'NONE', #124, 4.750000000000000000 ) ;
#162 = ORIENTED_EDGE ( 'NONE', *, *, #34, .F. ) ;
#163 = PRODUCT_CONTEXT ( 'NONE', #91, 'mechanical' ) ;
#164 = ORIENTED_EDGE ( 'NONE', *, *, #166, .T. ) ;
#165 = VERTEX_POINT ( 'NONE', #194 ) ;
#166 = EDGE_CURVE ( 'NONE', #167, #117, #56, .T. ) ;
#167 = VERTEX_POINT ( 'NONE', #25 ) ;
#168 = ADVANCED_FACE ( 'NONE', ( #111 ), #62, .T. ) ;
#169 = AXIS2_PLACEMENT_3D ( 'NONE', #18, #153, #188 ) ;
#170 = SURFACE_SIDE_STYLE ('',( #20 ) ) ;
#171 = DIRECTION ( 'NONE',  ( 0.000000000000000000, 1.000000000000000000, 0.000000000000000000 ) ) ;
#172 = FACE_OUTER_BOUND ( 'NONE', #127, .T. ) ;
#173 = FILL_AREA_STYLE ('',( #105 ) ) ;
#174 = CARTESIAN_POINT ( 'NONE',  ( 5.817072295949927426E-16, 4.099999999999999645, 4.750000000000000000 ) ) ;
#175 = VECTOR ( 'NONE', #52, 1000.000000000000000 ) ;
#176 = FACE_OUTER_BOUND ( 'NONE', #51, .T. ) ;
#177 = CARTESIAN_POINT ( 'NONE',  ( 0.000000000000000000, 4.099999999999999645, -4.750000000000000000 ) ) ;
#178 = AXIS2_PLACEMENT_3D ( 'NONE', #59, #122, #190 ) ;
#179 = EDGE_CURVE ( 'NONE', #145, #138, #93, .T. ) ;
#180 = ORIENTED_EDGE ( 'NONE', *, *, #101, .T. ) ;
#181 = AXIS2_PLACEMENT_3D ( 'NONE', #192, #50, #49 ) ;
#182 = EDGE_CURVE ( 'NONE', #138, #117, #128, .T. ) ;
#183 = ORIENTED_EDGE ( 'NONE', *, *, #1, .F. ) ;
#184 = PRODUCT_DEFINITION_FORMATION_WITH_SPECIFIED_SOURCE ( 'ANY', '', #152, .NOT_KNOWN. ) ;
#185 = DIRECTION ( 'NONE',  ( -0.000000000000000000, -1.000000000000000000, -0.000000000000000000 ) ) ;
#186 = FACE_OUTER_BOUND ( 'NONE', #48, .T. ) ;
#187 = FACE_BOUND ( 'NONE', #96, .T. ) ;
#188 = DIRECTION ( 'NONE',  ( 0.000000000000000000, 0.000000000000000000, 1.000000000000000000 ) ) ;
#189 = ORIENTED_EDGE ( 'NONE', *, *, #179, .F. ) ;
#190 = DIRECTION ( 'NONE',  ( 1.000000000000000000, 0.000000000000000000, 0.000000000000000000 ) ) ;
#191 =( NAMED_UNIT ( * ) SI_UNIT ( $, .STERADIAN. ) SOLID_ANGLE_UNIT ( ) );
#192 = CARTESIAN_POINT ( 'NONE',  ( 0.000000000000000000, 4.099999999999999645, 0.000000000000000000 ) ) ;
#193 = ORIENTED_EDGE ( 'NONE', *, *, #13, .T. ) ;
#194 = CARTESIAN_POINT ( 'NONE',  ( 5.817072295949927426E-16, 0.000000000000000000, 4.750000000000000000 ) ) ;
#195 = EDGE_CURVE ( 'NONE', #138, #145, #16, .T. ) ;
#196 = CARTESIAN_POINT ( 'NONE',  ( 5.817072295949927426E-16, 4.099999999999999645, 4.750000000000000000 ) ) ;
#197 =( GEOMETRIC_REPRESENTATION_CONTEXT ( 3 ) GLOBAL_UNCERTAINTY_ASSIGNED_CONTEXT ( ( #26 ) ) GLOBAL_UNIT_ASSIGNED_CONTEXT ( ( #11, #156, #191 ) ) REPRESENTATION_CONTEXT ( 'NONE', 'WORKASPACE' ) );
#198 = VERTEX_POINT ( 'NONE', #66 ) ;
#199 = AXIS2_PLACEMENT_3D ( 'NONE', #53, #86, #74 ) ;
ENDSEC;
END-ISO-10303-21;
