ISO-10303-21;
HEADER;
FILE_DESCRIPTION (( 'STEP AP214' ),
    '1' );
FILE_NAME ('7mm spacer.STEP',
    '2025-11-17T19:42:18',
    ( '' ),
    ( '' ),
    'SwSTEP 2.0',
    'SolidWorks 2025',
    '' );
FILE_SCHEMA (( 'AUTOMOTIVE_DESIGN' ));
ENDSEC;

DATA;
#1 = CARTESIAN_POINT ( 'NONE',  ( 0.000000000000000000, 0.000000000000000000, 0.000000000000000000 ) ) ;
#2 = ORIENTED_EDGE ( 'NONE', *, *, #48, .F. ) ;
#3 = CIRCLE ( 'NONE', #124, 5.049999999999999822 ) ;
#4 =( GEOMETRIC_REPRESENTATION_CONTEXT ( 3 ) GLOBAL_UNCERTAINTY_ASSIGNED_CONTEXT ( ( #166 ) ) GLOBAL_UNIT_ASSIGNED_CONTEXT ( ( #152, #173, #95 ) ) REPRESENTATION_CONTEXT ( 'NONE', 'WORKASPACE' ) );
#5 = ORIENTED_EDGE ( 'NONE', *, *, #185, .F. ) ;
#6 = VECTOR ( 'NONE', #156, 1000.000000000000000 ) ;
#7 = COLOUR_RGB ( '',0.7921568627450980005, 0.8196078431372548767, 0.9333333333333333481 ) ;
#8 = VERTEX_POINT ( 'NONE', #188 ) ;
#9 = UNCERTAINTY_MEASURE_WITH_UNIT (LENGTH_MEASURE( 1.000000000000000082E-05 ), #37, 'distance_accuracy_value', 'NONE');
#10 = SURFACE_STYLE_USAGE ( .BOTH. , #25 ) ;
#11 = DIRECTION ( 'NONE',  ( -0.000000000000000000, -1.000000000000000000, -0.000000000000000000 ) ) ;
#12 = DIRECTION ( 'NONE',  ( -0.000000000000000000, -1.000000000000000000, -0.000000000000000000 ) ) ;
#13 = CARTESIAN_POINT ( 'NONE',  ( 0.000000000000000000, 7.000000000000000000, -5.049999999999999822 ) ) ;
#14 = DIRECTION ( 'NONE',  ( 0.000000000000000000, 1.000000000000000000, 0.000000000000000000 ) ) ;
#15 = ORIENTED_EDGE ( 'NONE', *, *, #119, .T. ) ;
#16 = VERTEX_POINT ( 'NONE', #111 ) ;
#17 = PRODUCT_DEFINITION_SHAPE ( 'NONE', 'NONE',  #145 ) ;
#18 = AXIS2_PLACEMENT_3D ( 'NONE', #40, #192, #23 ) ;
#19 = VERTEX_POINT ( 'NONE', #51 ) ;
#20 = EDGE_CURVE ( 'NONE', #136, #8, #92, .T. ) ;
#21 = ORIENTED_EDGE ( 'NONE', *, *, #82, .F. ) ;
#22 =( NAMED_UNIT ( * ) PLANE_ANGLE_UNIT ( ) SI_UNIT ( $, .RADIAN. ) );
#23 = DIRECTION ( 'NONE',  ( 0.000000000000000000, -0.000000000000000000, 1.000000000000000000 ) ) ;
#24 = EDGE_LOOP ( 'NONE', ( #47, #117 ) ) ;
#25 = SURFACE_SIDE_STYLE ('',( #128 ) ) ;
#26 = CARTESIAN_POINT ( 'NONE',  ( 0.000000000000000000, 7.000000000000000000, 0.000000000000000000 ) ) ;
#27 = PRODUCT_RELATED_PRODUCT_CATEGORY ( 'part', '', ( #164 ) ) ;
#28 = DIRECTION ( 'NONE',  ( 0.000000000000000000, 1.000000000000000000, 0.000000000000000000 ) ) ;
#29 = CARTESIAN_POINT ( 'NONE',  ( 0.000000000000000000, 0.000000000000000000, 0.000000000000000000 ) ) ;
#30 = ADVANCED_FACE ( 'NONE', ( #80, #98 ), #53, .T. ) ;
#31 = AXIS2_PLACEMENT_3D ( 'NONE', #66, #81, #153 ) ;
#32 = DIRECTION ( 'NONE',  ( 0.000000000000000000, 0.000000000000000000, 1.000000000000000000 ) ) ;
#33 = CARTESIAN_POINT ( 'NONE',  ( 0.000000000000000000, 0.000000000000000000, 0.000000000000000000 ) ) ;
#34 = EDGE_LOOP ( 'NONE', ( #67, #108, #139, #2 ) ) ;
#35 = ORIENTED_EDGE ( 'NONE', *, *, #113, .F. ) ;
#36 = CIRCLE ( 'NONE', #165, 5.049999999999999822 ) ;
#37 =( LENGTH_UNIT ( ) NAMED_UNIT ( * ) SI_UNIT ( .MILLI., .METRE. ) );
#38 = ORIENTED_EDGE ( 'NONE', *, *, #48, .T. ) ;
#39 = CIRCLE ( 'NONE', #183, 4.049999999999999822 ) ;
#40 = CARTESIAN_POINT ( 'NONE',  ( 0.000000000000000000, 7.000000000000000000, 0.000000000000000000 ) ) ;
#41 = DIRECTION ( 'NONE',  ( 0.000000000000000000, 1.000000000000000000, 0.000000000000000000 ) ) ;
#42 = DIRECTION ( 'NONE',  ( 0.000000000000000000, 0.000000000000000000, 1.000000000000000000 ) ) ;
#43 = CYLINDRICAL_SURFACE ( 'NONE', #72, 5.049999999999999822 ) ;
#44 = CARTESIAN_POINT ( 'NONE',  ( 4.959819536546779614E-16, 7.000000000000000000, 4.049999999999999822 ) ) ;
#45 = DIRECTION ( 'NONE',  ( 0.000000000000000000, 1.000000000000000000, 0.000000000000000000 ) ) ;
#46 = VECTOR ( 'NONE', #140, 1000.000000000000000 ) ;
#47 = ORIENTED_EDGE ( 'NONE', *, *, #193, .F. ) ;
#48 = EDGE_CURVE ( 'NONE', #136, #149, #155, .T. ) ;
#49 = DIRECTION ( 'NONE',  ( 0.000000000000000000, 0.000000000000000000, 1.000000000000000000 ) ) ;
#50 = ORIENTED_EDGE ( 'NONE', *, *, #196, .T. ) ;
#51 = CARTESIAN_POINT ( 'NONE',  ( 0.000000000000000000, 0.000000000000000000, -4.049999999999999822 ) ) ;
#52 = CARTESIAN_POINT ( 'NONE',  ( 0.000000000000000000, 7.000000000000000000, -4.049999999999999822 ) ) ;
#53 = PLANE ( 'NONE',  #18 ) ;
#54 = CARTESIAN_POINT ( 'NONE',  ( 0.000000000000000000, 7.000000000000000000, -5.049999999999999822 ) ) ;
#55 = DIRECTION ( 'NONE',  ( -0.000000000000000000, -1.000000000000000000, -0.000000000000000000 ) ) ;
#56 = CARTESIAN_POINT ( 'NONE',  ( 0.000000000000000000, 7.000000000000000000, 0.000000000000000000 ) ) ;
#57 = DIRECTION ( 'NONE',  ( -0.000000000000000000, -1.000000000000000000, -0.000000000000000000 ) ) ;
#58 = ORIENTED_EDGE ( 'NONE', *, *, #20, .T. ) ;
#59 = PRODUCT_DEFINITION_FORMATION_WITH_SPECIFIED_SOURCE ( 'ANY', '', #164, .NOT_KNOWN. ) ;
#60 = EDGE_CURVE ( 'NONE', #8, #16, #99, .T. ) ;
#61 = EDGE_LOOP ( 'NONE', ( #58, #79 ) ) ;
#62 = STYLED_ITEM ( 'NONE', ( #110 ), #64 ) ;
#63 = ORIENTED_EDGE ( 'NONE', *, *, #103, .T. ) ;
#64 = MANIFOLD_SOLID_BREP ( 'Boss-Extrude1', #132 ) ;
#65 = AXIS2_PLACEMENT_3D ( 'NONE', #171, #150, #49 ) ;
#66 = CARTESIAN_POINT ( 'NONE',  ( 0.000000000000000000, 0.000000000000000000, 0.000000000000000000 ) ) ;
#67 = ORIENTED_EDGE ( 'NONE', *, *, #127, .F. ) ;
#68 = PLANE ( 'NONE',  #135 ) ;
#69 = CIRCLE ( 'NONE', #105, 4.049999999999999822 ) ;
#70 = CYLINDRICAL_SURFACE ( 'NONE', #172, 4.049999999999999822 ) ;
#71 = CYLINDRICAL_SURFACE ( 'NONE', #177, 5.049999999999999822 ) ;
#72 = AXIS2_PLACEMENT_3D ( 'NONE', #162, #55, #104 ) ;
#73 = CARTESIAN_POINT ( 'NONE',  ( 4.959819536546779614E-16, 0.000000000000000000, 4.049999999999999822 ) ) ;
#74 = DIRECTION ( 'NONE',  ( 0.000000000000000000, 1.000000000000000000, 0.000000000000000000 ) ) ;
#75 = VECTOR ( 'NONE', #57, 1000.000000000000000 ) ;
#76 = DIRECTION ( 'NONE',  ( 0.000000000000000000, 0.000000000000000000, 1.000000000000000000 ) ) ;
#77 = EDGE_LOOP ( 'NONE', ( #134, #5 ) ) ;
#78 = ADVANCED_FACE ( 'NONE', ( #158, #160 ), #68, .F. ) ;
#79 = ORIENTED_EDGE ( 'NONE', *, *, #127, .T. ) ;
#80 = FACE_OUTER_BOUND ( 'NONE', #61, .T. ) ;
#81 = DIRECTION ( 'NONE',  ( 0.000000000000000000, 0.000000000000000000, 1.000000000000000000 ) ) ;
#82 = EDGE_CURVE ( 'NONE', #90, #168, #141, .T. ) ;
#83 = APPLICATION_CONTEXT ( 'automotive_design' ) ;
#84 =( GEOMETRIC_REPRESENTATION_CONTEXT ( 3 ) GLOBAL_UNCERTAINTY_ASSIGNED_CONTEXT ( ( #9 ) ) GLOBAL_UNIT_ASSIGNED_CONTEXT ( ( #37, #22, #87 ) ) REPRESENTATION_CONTEXT ( 'NONE', 'WORKASPACE' ) );
#85 = FACE_OUTER_BOUND ( 'NONE', #123, .T. ) ;
#86 = CYLINDRICAL_SURFACE ( 'NONE', #120, 4.049999999999999822 ) ;
#87 =( NAMED_UNIT ( * ) SI_UNIT ( $, .STERADIAN. ) SOLID_ANGLE_UNIT ( ) );
#88 = FACE_OUTER_BOUND ( 'NONE', #170, .T. ) ;
#89 = DIRECTION ( 'NONE',  ( 0.000000000000000000, 0.000000000000000000, 1.000000000000000000 ) ) ;
#90 = VERTEX_POINT ( 'NONE', #44 ) ;
#91 = AXIS2_PLACEMENT_3D ( 'NONE', #107, #176, #131 ) ;
#92 = CIRCLE ( 'NONE', #65, 5.049999999999999822 ) ;
#93 = ORIENTED_EDGE ( 'NONE', *, *, #130, .T. ) ;
#94 = ADVANCED_FACE ( 'NONE', ( #161 ), #86, .F. ) ;
#95 =( NAMED_UNIT ( * ) SI_UNIT ( $, .STERADIAN. ) SOLID_ANGLE_UNIT ( ) );
#96 = APPLICATION_CONTEXT ( 'automotive_design' ) ;
#97 = MECHANICAL_DESIGN_GEOMETRIC_PRESENTATION_REPRESENTATION (  '', ( #62 ), #84 ) ;
#98 = FACE_BOUND ( 'NONE', #24, .T. ) ;
#99 = LINE ( 'NONE', #125, #46 ) ;
#100 = CARTESIAN_POINT ( 'NONE',  ( 0.000000000000000000, 7.000000000000000000, 0.000000000000000000 ) ) ;
#101 = VECTOR ( 'NONE', #194, 1000.000000000000000 ) ;
#102 = DIRECTION ( 'NONE',  ( 0.000000000000000000, 0.000000000000000000, -1.000000000000000000 ) ) ;
#103 = EDGE_CURVE ( 'NONE', #199, #19, #198, .T. ) ;
#104 = DIRECTION ( 'NONE',  ( 0.000000000000000000, 0.000000000000000000, -1.000000000000000000 ) ) ;
#105 = AXIS2_PLACEMENT_3D ( 'NONE', #180, #178, #42 ) ;
#106 = ADVANCED_FACE ( 'NONE', ( #179 ), #43, .T. ) ;
#107 = CARTESIAN_POINT ( 'NONE',  ( 0.000000000000000000, 7.000000000000000000, 0.000000000000000000 ) ) ;
#108 = ORIENTED_EDGE ( 'NONE', *, *, #60, .T. ) ;
#109 = SHAPE_DEFINITION_REPRESENTATION ( #17, #157 ) ;
#110 = PRESENTATION_STYLE_ASSIGNMENT (( #10 ) ) ;
#111 = CARTESIAN_POINT ( 'NONE',  ( 6.184466335694133068E-16, 0.000000000000000000, 5.049999999999999822 ) ) ;
#112 = DIRECTION ( 'NONE',  ( 0.000000000000000000, -0.000000000000000000, 1.000000000000000000 ) ) ;
#113 = EDGE_CURVE ( 'NONE', #19, #168, #39, .T. ) ;
#114 = DIRECTION ( 'NONE',  ( 0.000000000000000000, 0.000000000000000000, 1.000000000000000000 ) ) ;
#115 = CARTESIAN_POINT ( 'NONE',  ( 0.000000000000000000, 7.000000000000000000, -4.049999999999999822 ) ) ;
#116 = DIRECTION ( 'NONE',  ( 0.000000000000000000, 1.000000000000000000, 0.000000000000000000 ) ) ;
#117 = ORIENTED_EDGE ( 'NONE', *, *, #130, .F. ) ;
#118 = AXIS2_PLACEMENT_3D ( 'NONE', #147, #41, #197 ) ;
#119 = EDGE_CURVE ( 'NONE', #168, #19, #151, .T. ) ;
#120 = AXIS2_PLACEMENT_3D ( 'NONE', #26, #11, #142 ) ;
#121 = APPLICATION_PROTOCOL_DEFINITION ( 'draft international standard', 'automotive_design', 1998, #83 ) ;
#122 = ADVANCED_FACE ( 'NONE', ( #85 ), #71, .T. ) ;
#123 = EDGE_LOOP ( 'NONE', ( #137, #190, #38, #50 ) ) ;
#124 = AXIS2_PLACEMENT_3D ( 'NONE', #1, #116, #114 ) ;
#125 = CARTESIAN_POINT ( 'NONE',  ( 6.184466335694133068E-16, 7.000000000000000000, 5.049999999999999822 ) ) ;
#126 = ORIENTED_EDGE ( 'NONE', *, *, #103, .F. ) ;
#127 = EDGE_CURVE ( 'NONE', #8, #136, #144, .T. ) ;
#128 = SURFACE_STYLE_FILL_AREA ( #175 ) ;
#129 = CARTESIAN_POINT ( 'NONE',  ( 4.959819536546779614E-16, 7.000000000000000000, 4.049999999999999822 ) ) ;
#130 = EDGE_CURVE ( 'NONE', #90, #199, #181, .T. ) ;
#131 = DIRECTION ( 'NONE',  ( 0.000000000000000000, 0.000000000000000000, 1.000000000000000000 ) ) ;
#132 = CLOSED_SHELL ( 'NONE', ( #94, #106, #30, #78, #122, #182 ) ) ;
#133 = DIRECTION ( 'NONE',  ( -0.000000000000000000, -1.000000000000000000, -0.000000000000000000 ) ) ;
#134 = ORIENTED_EDGE ( 'NONE', *, *, #196, .F. ) ;
#135 = AXIS2_PLACEMENT_3D ( 'NONE', #29, #45, #112 ) ;
#136 = VERTEX_POINT ( 'NONE', #13 ) ;
#137 = ORIENTED_EDGE ( 'NONE', *, *, #60, .F. ) ;
#138 = AXIS2_PLACEMENT_3D ( 'NONE', #143, #74, #89 ) ;
#139 = ORIENTED_EDGE ( 'NONE', *, *, #185, .T. ) ;
#140 = DIRECTION ( 'NONE',  ( -0.000000000000000000, -1.000000000000000000, -0.000000000000000000 ) ) ;
#141 = LINE ( 'NONE', #129, #75 ) ;
#142 = DIRECTION ( 'NONE',  ( 0.000000000000000000, 0.000000000000000000, -1.000000000000000000 ) ) ;
#143 = CARTESIAN_POINT ( 'NONE',  ( 0.000000000000000000, 0.000000000000000000, 0.000000000000000000 ) ) ;
#144 = CIRCLE ( 'NONE', #91, 5.049999999999999822 ) ;
#145 = PRODUCT_DEFINITION ( 'UNKNOWN', '', #59, #167 ) ;
#146 = ORIENTED_EDGE ( 'NONE', *, *, #119, .F. ) ;
#147 = CARTESIAN_POINT ( 'NONE',  ( 0.000000000000000000, 7.000000000000000000, 0.000000000000000000 ) ) ;
#148 = CARTESIAN_POINT ( 'NONE',  ( 0.000000000000000000, 0.000000000000000000, -5.049999999999999822 ) ) ;
#149 = VERTEX_POINT ( 'NONE', #148 ) ;
#150 = DIRECTION ( 'NONE',  ( 0.000000000000000000, 1.000000000000000000, 0.000000000000000000 ) ) ;
#151 = CIRCLE ( 'NONE', #138, 4.049999999999999822 ) ;
#152 =( LENGTH_UNIT ( ) NAMED_UNIT ( * ) SI_UNIT ( .MILLI., .METRE. ) );
#153 = DIRECTION ( 'NONE',  ( 1.000000000000000000, 0.000000000000000000, 0.000000000000000000 ) ) ;
#154 = PRESENTATION_LAYER_ASSIGNMENT (  '', '', ( #62 ) ) ;
#155 = LINE ( 'NONE', #54, #6 ) ;
#156 = DIRECTION ( 'NONE',  ( -0.000000000000000000, -1.000000000000000000, -0.000000000000000000 ) ) ;
#157 = ADVANCED_BREP_SHAPE_REPRESENTATION ( '7mm spacer', ( #64, #31 ), #4 ) ;
#158 = FACE_OUTER_BOUND ( 'NONE', #77, .T. ) ;
#159 = CARTESIAN_POINT ( 'NONE',  ( 0.000000000000000000, 0.000000000000000000, 0.000000000000000000 ) ) ;
#160 = FACE_BOUND ( 'NONE', #187, .T. ) ;
#161 = FACE_OUTER_BOUND ( 'NONE', #169, .T. ) ;
#162 = CARTESIAN_POINT ( 'NONE',  ( 0.000000000000000000, 7.000000000000000000, 0.000000000000000000 ) ) ;
#163 = ORIENTED_EDGE ( 'NONE', *, *, #82, .T. ) ;
#164 = PRODUCT ( '7mm spacer', '7mm spacer', '', ( #189 ) ) ;
#165 = AXIS2_PLACEMENT_3D ( 'NONE', #159, #28, #76 ) ;
#166 = UNCERTAINTY_MEASURE_WITH_UNIT (LENGTH_MEASURE( 1.000000000000000082E-05 ), #152, 'distance_accuracy_value', 'NONE');
#167 = PRODUCT_DEFINITION_CONTEXT ( 'detailed design', #96, 'design' ) ;
#168 = VERTEX_POINT ( 'NONE', #73 ) ;
#169 = EDGE_LOOP ( 'NONE', ( #191, #163, #35, #126 ) ) ;
#170 = EDGE_LOOP ( 'NONE', ( #21, #93, #63, #146 ) ) ;
#171 = CARTESIAN_POINT ( 'NONE',  ( 0.000000000000000000, 7.000000000000000000, 0.000000000000000000 ) ) ;
#172 = AXIS2_PLACEMENT_3D ( 'NONE', #100, #133, #195 ) ;
#173 =( NAMED_UNIT ( * ) PLANE_ANGLE_UNIT ( ) SI_UNIT ( $, .RADIAN. ) );
#174 = FILL_AREA_STYLE_COLOUR ( '', #7 ) ;
#175 = FILL_AREA_STYLE ('',( #174 ) ) ;
#176 = DIRECTION ( 'NONE',  ( 0.000000000000000000, 1.000000000000000000, 0.000000000000000000 ) ) ;
#177 = AXIS2_PLACEMENT_3D ( 'NONE', #56, #12, #102 ) ;
#178 = DIRECTION ( 'NONE',  ( 0.000000000000000000, 1.000000000000000000, 0.000000000000000000 ) ) ;
#179 = FACE_OUTER_BOUND ( 'NONE', #34, .T. ) ;
#180 = CARTESIAN_POINT ( 'NONE',  ( 0.000000000000000000, 7.000000000000000000, 0.000000000000000000 ) ) ;
#181 = CIRCLE ( 'NONE', #118, 4.049999999999999822 ) ;
#182 = ADVANCED_FACE ( 'NONE', ( #88 ), #70, .F. ) ;
#183 = AXIS2_PLACEMENT_3D ( 'NONE', #33, #14, #32 ) ;
#184 = ORIENTED_EDGE ( 'NONE', *, *, #113, .T. ) ;
#185 = EDGE_CURVE ( 'NONE', #16, #149, #3, .T. ) ;
#186 = APPLICATION_PROTOCOL_DEFINITION ( 'draft international standard', 'automotive_design', 1998, #96 ) ;
#187 = EDGE_LOOP ( 'NONE', ( #184, #15 ) ) ;
#188 = CARTESIAN_POINT ( 'NONE',  ( 6.184466335694133068E-16, 7.000000000000000000, 5.049999999999999822 ) ) ;
#189 = PRODUCT_CONTEXT ( 'NONE', #83, 'mechanical' ) ;
#190 = ORIENTED_EDGE ( 'NONE', *, *, #20, .F. ) ;
#191 = ORIENTED_EDGE ( 'NONE', *, *, #193, .T. ) ;
#192 = DIRECTION ( 'NONE',  ( 0.000000000000000000, 1.000000000000000000, 0.000000000000000000 ) ) ;
#193 = EDGE_CURVE ( 'NONE', #199, #90, #69, .T. ) ;
#194 = DIRECTION ( 'NONE',  ( -0.000000000000000000, -1.000000000000000000, -0.000000000000000000 ) ) ;
#195 = DIRECTION ( 'NONE',  ( 0.000000000000000000, 0.000000000000000000, -1.000000000000000000 ) ) ;
#196 = EDGE_CURVE ( 'NONE', #149, #16, #36, .T. ) ;
#197 = DIRECTION ( 'NONE',  ( 0.000000000000000000, 0.000000000000000000, 1.000000000000000000 ) ) ;
#198 = LINE ( 'NONE', #115, #101 ) ;
#199 = VERTEX_POINT ( 'NONE', #52 ) ;
ENDSEC;
END-ISO-10303-21;
