ISO-10303-21;
HEADER;
FILE_DESCRIPTION (( 'STEP AP214' ),
    '1' );
FILE_NAME ('Assem2.STEP',
    '2024-12-29T12:14:39',
    ( '' ),
    ( '' ),
    'SwSTEP 2.0',
    'SolidWorks 2023',
    '' );
FILE_SCHEMA (( 'AUTOMOTIVE_DESIGN' ));
ENDSEC;

DATA;
#1 = CARTESIAN_POINT ( 'NONE',  ( -22.00000000000000000, -18.04004306450946871, 4.500000000000000000 ) ) ;
#2 = DIRECTION ( 'NONE',  ( 1.000000000000000000, 1.836970198721030181E-16, 0.000000000000000000 ) ) ;
#3 = LINE ( 'NONE', #508, #196 ) ;
#4 =( NAMED_UNIT ( * ) SI_UNIT ( $, .STERADIAN. ) SOLID_ANGLE_UNIT ( ) );
#5 = AXIS2_PLACEMENT_3D ( 'NONE', #222, #417, #35 ) ;
#6 = CARTESIAN_POINT ( 'NONE',  ( -25.00000000000000000, -8.040043064509466930, 0.000000000000000000 ) ) ;
#7 = CIRCLE ( 'NONE', #200, 2.999999999999999112 ) ;
#8 = ORIENTED_EDGE ( 'NONE', *, *, #491, .T. ) ;
#9 = VECTOR ( 'NONE', #466, 1000.000000000000000 ) ;
#10 = EDGE_CURVE ( 'NONE', #145, #267, #525, .T. ) ;
#11 = ORIENTED_EDGE ( 'NONE', *, *, #491, .F. ) ;
#12 = DIRECTION ( 'NONE',  ( -1.000000000000000000, -1.836970198721029688E-16, 0.000000000000000000 ) ) ;
#13 = ORIENTED_EDGE ( 'NONE', *, *, #112, .T. ) ;
#14 = PRODUCT ( 'Assem2', 'Assem2', '', ( #202 ) ) ;
#15 = EDGE_CURVE ( 'NONE', #347, #589, #499, .T. ) ;
#16 = DIRECTION ( 'NONE',  ( -1.836970198721029688E-16, 1.000000000000000000, 0.000000000000000000 ) ) ;
#17 = PRESENTATION_STYLE_ASSIGNMENT (( #472 ) ) ;
#18 = ORIENTED_EDGE ( 'NONE', *, *, #593, .T. ) ;
#19 = EDGE_CURVE ( 'NONE', #376, #42, #391, .T. ) ;
#20 = AXIS2_PLACEMENT_3D ( 'NONE', #168, #453, #41 ) ;
#21 =( NAMED_UNIT ( * ) PLANE_ANGLE_UNIT ( ) SI_UNIT ( $, .RADIAN. ) );
#22 = EDGE_LOOP ( 'NONE', ( #69, #402, #324, #155 ) ) ;
#23 = ORIENTED_EDGE ( 'NONE', *, *, #259, .F. ) ;
#24 = CONTEXT_DEPENDENT_SHAPE_REPRESENTATION ( #47, #237 ) ;
#25 = CARTESIAN_POINT ( 'NONE',  ( -25.00000000000000000, 34.00000000000000000, 7.500000000000000000 ) ) ;
#26 = EDGE_CURVE ( 'NONE', #589, #347, #110, .T. ) ;
#27 = PRODUCT_CONTEXT ( 'NONE', #548, 'mechanical' ) ;
#28 = ORIENTED_EDGE ( 'NONE', *, *, #101, .F. ) ;
#29 = DIRECTION ( 'NONE',  ( 0.000000000000000000, -1.000000000000000000, 0.000000000000000000 ) ) ;
#30 = ITEM_DEFINED_TRANSFORMATION ( 'NONE', 'NONE', #121,  #224 ) ;
#31 = DIRECTION ( 'NONE',  ( -1.000000000000000000, 0.000000000000000000, 0.000000000000000000 ) ) ;
#32 = EDGE_CURVE ( 'NONE', #381, #490, #114, .T. ) ;
#33 = CARTESIAN_POINT ( 'NONE',  ( -21.26340000000000074, 31.00000000000000000, 7.500000000000000000 ) ) ;
#34 = CYLINDRICAL_SURFACE ( 'NONE', #289, 1.499999999999999556 ) ;
#35 = DIRECTION ( 'NONE',  ( 0.000000000000000000, 1.000000000000000000, 0.000000000000000000 ) ) ;
#36 = EDGE_CURVE ( 'NONE', #490, #321, #205, .T. ) ;
#37 = DIRECTION ( 'NONE',  ( 1.000000000000000000, -0.000000000000000000, -0.000000000000000000 ) ) ;
#38 = EDGE_LOOP ( 'NONE', ( #336, #58, #531, #473 ) ) ;
#39 = AXIS2_PLACEMENT_3D ( 'NONE', #264, #206, #537 ) ;
#40 = MECHANICAL_DESIGN_GEOMETRIC_PRESENTATION_REPRESENTATION (  '', ( #486 ), #75 ) ;
#41 = DIRECTION ( 'NONE',  ( 0.000000000000000000, 0.000000000000000000, 1.000000000000000000 ) ) ;
#42 = VERTEX_POINT ( 'NONE', #432 ) ;
#43 = CARTESIAN_POINT ( 'NONE',  ( 0.000000000000000000, 0.000000000000000000, 0.000000000000000000 ) ) ;
#44 = DIRECTION ( 'NONE',  ( 0.000000000000000000, 1.000000000000000000, 0.000000000000000000 ) ) ;
#45 = CARTESIAN_POINT ( 'NONE',  ( -22.00000000000000000, -21.04004306450946871, 7.500000000000000000 ) ) ;
#46 = VERTEX_POINT ( 'NONE', #195 ) ;
#47 =( REPRESENTATION_RELATIONSHIP ('NONE','NONE', #355, #245 ) REPRESENTATION_RELATIONSHIP_WITH_TRANSFORMATION ( #389 )SHAPE_REPRESENTATION_RELATIONSHIP( ) );
#48 = VECTOR ( 'NONE', #464, 1000.000000000000000 ) ;
#49 = DIRECTION ( 'NONE',  ( -6.123233995736766036E-17, 1.000000000000000000, 0.000000000000000000 ) ) ;
#50 = PLANE ( 'NONE',  #504 ) ;
#51 = CARTESIAN_POINT ( 'NONE',  ( -25.00000000000000000, 31.00000000000000355, 7.500000000000000000 ) ) ;
#52 = PRODUCT_DEFINITION_CONTEXT ( 'detailed design', #107, 'design' ) ;
#53 = CARTESIAN_POINT ( 'NONE',  ( -22.00000000000000355, 24.99999999999999645, 0.000000000000000000 ) ) ;
#54 = AXIS2_PLACEMENT_3D ( 'NONE', #76, #449, #255 ) ;
#55 = EDGE_CURVE ( 'NONE', #111, #414, #7, .T. ) ;
#56 = VERTEX_POINT ( 'NONE', #383 ) ;
#57 = LINE ( 'NONE', #230, #79 ) ;
#58 = ORIENTED_EDGE ( 'NONE', *, *, #259, .T. ) ;
#59 = CARTESIAN_POINT ( 'NONE',  ( -24.99999999999999645, -18.04004306450946871, 4.500000000000000000 ) ) ;
#60 = AXIS2_PLACEMENT_3D ( 'NONE', #447, #368, #584 ) ;
#61 = VERTEX_POINT ( 'NONE', #572 ) ;
#62 = ADVANCED_FACE ( 'NONE', ( #573 ), #201, .T. ) ;
#63 = PRODUCT_DEFINITION_SHAPE ( 'NONE', 'NONE',  #236 ) ;
#64 = ORIENTED_EDGE ( 'NONE', *, *, #435, .F. ) ;
#65 = AXIS2_PLACEMENT_3D ( 'NONE', #299, #31, #73 ) ;
#66 = ORIENTED_EDGE ( 'NONE', *, *, #359, .F. ) ;
#67 = DIRECTION ( 'NONE',  ( 0.000000000000000000, 0.000000000000000000, 1.000000000000000000 ) ) ;
#68 = DIRECTION ( 'NONE',  ( 1.000000000000000000, 1.836970198721030181E-16, 0.000000000000000000 ) ) ;
#69 = ORIENTED_EDGE ( 'NONE', *, *, #199, .F. ) ;
#70 = CIRCLE ( 'NONE', #350, 1.499999999999999556 ) ;
#71 = CARTESIAN_POINT ( 'NONE',  ( -25.00000000000000000, 31.00000000000000355, -4.500000000000000888 ) ) ;
#72 =( NAMED_UNIT ( * ) PLANE_ANGLE_UNIT ( ) SI_UNIT ( $, .RADIAN. ) );
#73 = DIRECTION ( 'NONE',  ( 0.000000000000000000, 0.000000000000000000, 1.000000000000000000 ) ) ;
#74 = ADVANCED_FACE ( 'NONE', ( #497 ), #416, .T. ) ;
#75 =( GEOMETRIC_REPRESENTATION_CONTEXT ( 3 ) GLOBAL_UNCERTAINTY_ASSIGNED_CONTEXT ( ( #144 ) ) GLOBAL_UNIT_ASSIGNED_CONTEXT ( ( #328, #105, #4 ) ) REPRESENTATION_CONTEXT ( 'NONE', 'WORKASPACE' ) );
#76 = CARTESIAN_POINT ( 'NONE',  ( 0.000000000000000000, 0.000000000000000000, 0.000000000000000000 ) ) ;
#77 = CARTESIAN_POINT ( 'NONE',  ( -25.00000000000000000, 34.00000000000000000, 7.500000000000000000 ) ) ;
#78 = AXIS2_PLACEMENT_3D ( 'NONE', #436, #239, #351 ) ;
#79 = VECTOR ( 'NONE', #425, 1000.000000000000000 ) ;
#80 = CARTESIAN_POINT ( 'NONE',  ( -25.00000000000000000, -16.54004306450946871, 0.000000000000000000 ) ) ;
#81 = LINE ( 'NONE', #133, #298 ) ;
#82 = ORIENTED_EDGE ( 'NONE', *, *, #312, .T. ) ;
#83 = ADVANCED_FACE ( 'NONE', ( #119 ), #300, .T. ) ;
#84 = LINE ( 'NONE', #33, #559 ) ;
#85 = CARTESIAN_POINT ( 'NONE',  ( -24.99999999999999645, -18.04004306450946871, -4.500000000000000888 ) ) ;
#86 = CARTESIAN_POINT ( 'NONE',  ( -21.26339999999999719, -18.04004306450946871, -4.500000000000000888 ) ) ;
#87 = ORIENTED_EDGE ( 'NONE', *, *, #343, .F. ) ;
#88 = DIRECTION ( 'NONE',  ( -1.000000000000000000, -0.000000000000000000, -0.000000000000000000 ) ) ;
#89 = CARTESIAN_POINT ( 'NONE',  ( -22.00000000000000000, -8.040043064509466930, 0.000000000000000000 ) ) ;
#90 = DIRECTION ( 'NONE',  ( 1.000000000000000000, -0.000000000000000000, -0.000000000000000000 ) ) ;
#91 = DIRECTION ( 'NONE',  ( -1.000000000000000000, 0.000000000000000000, 0.000000000000000000 ) ) ;
#92 = CIRCLE ( 'NONE', #431, 1.500000000000001332 ) ;
#93 = CARTESIAN_POINT ( 'NONE',  ( -25.00000000000000000, -3.061616997868383043E-15, 7.500000000000000000 ) ) ;
#94 = DIRECTION ( 'NONE',  ( -1.000000000000000000, -1.836970198721029688E-16, 0.000000000000000000 ) ) ;
#95 = ORIENTED_EDGE ( 'NONE', *, *, #326, .F. ) ;
#96 = AXIS2_PLACEMENT_3D ( 'NONE', #80, #455, #44 ) ;
#97 = DIRECTION ( 'NONE',  ( 0.000000000000000000, 1.000000000000000000, 0.000000000000000000 ) ) ;
#98 = ORIENTED_EDGE ( 'NONE', *, *, #390, .F. ) ;
#99 = VECTOR ( 'NONE', #579, 1000.000000000000000 ) ;
#100 = LINE ( 'NONE', #375, #9 ) ;
#101 = EDGE_CURVE ( 'NONE', #462, #145, #403, .T. ) ;
#102 = ORIENTED_EDGE ( 'NONE', *, *, #501, .T. ) ;
#103 = PLANE ( 'NONE',  #483 ) ;
#104 = EDGE_CURVE ( 'NONE', #123, #190, #84, .T. ) ;
#105 =( NAMED_UNIT ( * ) PLANE_ANGLE_UNIT ( ) SI_UNIT ( $, .RADIAN. ) );
#106 = EDGE_LOOP ( 'NONE', ( #279, #235, #113, #521 ) ) ;
#107 = APPLICATION_CONTEXT ( 'automotive_design' ) ;
#108 = ORIENTED_EDGE ( 'NONE', *, *, #101, .T. ) ;
#109 = ORIENTED_EDGE ( 'NONE', *, *, #401, .F. ) ;
#110 = CIRCLE ( 'NONE', #78, 1.499999999999999556 ) ;
#111 = VERTEX_POINT ( 'NONE', #411 ) ;
#112 = EDGE_CURVE ( 'NONE', #190, #381, #530, .T. ) ;
#113 = ORIENTED_EDGE ( 'NONE', *, *, #475, .F. ) ;
#114 = LINE ( 'NONE', #25, #341 ) ;
#115 = CARTESIAN_POINT ( 'NONE',  ( -24.99999999999999645, -18.04004306450946871, -7.500000000000000000 ) ) ;
#116 = ORIENTED_EDGE ( 'NONE', *, *, #574, .F. ) ;
#117 = ADVANCED_FACE ( 'NONE', ( #562 ), #177, .F. ) ;
#118 = SHAPE_DEFINITION_REPRESENTATION ( #290, #245 ) ;
#119 = FACE_OUTER_BOUND ( 'NONE', #38, .T. ) ;
#120 = CARTESIAN_POINT ( 'NONE',  ( -22.00000000000000000, -21.04004306450946871, 4.500000000000000000 ) ) ;
#121 = AXIS2_PLACEMENT_3D ( 'NONE', #164, #398, #263 ) ;
#122 = DIRECTION ( 'NONE',  ( 1.836970198721029688E-16, -1.000000000000000000, 0.000000000000000000 ) ) ;
#123 = VERTEX_POINT ( 'NONE', #180 ) ;
#124 = EDGE_CURVE ( 'NONE', #523, #123, #223, .T. ) ;
#125 = DIRECTION ( 'NONE',  ( 0.000000000000000000, 0.000000000000000000, 1.000000000000000000 ) ) ;
#126 = CARTESIAN_POINT ( 'NONE',  ( -22.00000000000000355, 31.00000000000000355, 4.500000000000000000 ) ) ;
#127 = ORIENTED_EDGE ( 'NONE', *, *, #334, .T. ) ;
#128 = DIRECTION ( 'NONE',  ( -1.000000000000000000, 0.000000000000000000, 0.000000000000000000 ) ) ;
#129 = DIRECTION ( 'NONE',  ( 0.000000000000000000, 0.000000000000000000, 1.000000000000000000 ) ) ;
#130 = CARTESIAN_POINT ( 'NONE',  ( -24.99999999999999645, -21.04004306450946871, 7.500000000000000000 ) ) ;
#131 = ORIENTED_EDGE ( 'NONE', *, *, #146, .T. ) ;
#132 = CARTESIAN_POINT ( 'NONE',  ( -25.00000000000000000, -11.04004306450947048, 1.836970198721029441E-16 ) ) ;
#133 = CARTESIAN_POINT ( 'NONE',  ( -25.00000000000000000, -15.04004306450946871, 0.000000000000000000 ) ) ;
#134 = VERTEX_POINT ( 'NONE', #371 ) ;
#135 = FACE_BOUND ( 'NONE', #318, .T. ) ;
#136 = AXIS2_PLACEMENT_3D ( 'NONE', #439, #478, #345 ) ;
#137 = DIRECTION ( 'NONE',  ( -1.836970198721029688E-16, 1.000000000000000000, 0.000000000000000000 ) ) ;
#138 = PRODUCT_RELATED_PRODUCT_CATEGORY ( 'part', '', ( #565 ) ) ;
#139 = ORIENTED_EDGE ( 'NONE', *, *, #390, .T. ) ;
#140 = FACE_OUTER_BOUND ( 'NONE', #151, .T. ) ;
#141 = CARTESIAN_POINT ( 'NONE',  ( -25.00000000000000000, -16.54004306450946871, 0.000000000000000000 ) ) ;
#142 = EDGE_CURVE ( 'NONE', #61, #111, #3, .T. ) ;
#143 = CARTESIAN_POINT ( 'NONE',  ( -25.00000000000000000, -9.540043064509468707, 0.000000000000000000 ) ) ;
#144 = UNCERTAINTY_MEASURE_WITH_UNIT (LENGTH_MEASURE( 1.000000000000000082E-05 ), #328, 'distance_accuracy_value', 'NONE');
#145 = VERTEX_POINT ( 'NONE', #232 ) ;
#146 = EDGE_CURVE ( 'NONE', #185, #111, #100, .T. ) ;
#147 = DIRECTION ( 'NONE',  ( 0.000000000000000000, -1.000000000000000000, 0.000000000000000000 ) ) ;
#148 = ORIENTED_EDGE ( 'NONE', *, *, #271, .T. ) ;
#149 = AXIS2_PLACEMENT_3D ( 'NONE', #546, #174, #364 ) ;
#150 =( NAMED_UNIT ( * ) SI_UNIT ( $, .STERADIAN. ) SOLID_ANGLE_UNIT ( ) );
#151 = EDGE_LOOP ( 'NONE', ( #66, #23, #329, #386 ) ) ;
#152 = CIRCLE ( 'NONE', #338, 6.000000000000000888 ) ;
#153 = VERTEX_POINT ( 'NONE', #563 ) ;
#154 = EDGE_CURVE ( 'NONE', #321, #153, #57, .T. ) ;
#155 = ORIENTED_EDGE ( 'NONE', *, *, #501, .F. ) ;
#156 = DIRECTION ( 'NONE',  ( 1.000000000000000000, 1.836970198721030181E-16, 0.000000000000000000 ) ) ;
#157 = ORIENTED_EDGE ( 'NONE', *, *, #36, .F. ) ;
#158 = AXIS2_PLACEMENT_3D ( 'NONE', #77, #551, #315 ) ;
#159 = ADVANCED_FACE ( 'NONE', ( #140 ), #429, .T. ) ;
#160 = DIRECTION ( 'NONE',  ( 1.000000000000000000, 1.836970198721029688E-16, 0.000000000000000000 ) ) ;
#161 = CIRCLE ( 'NONE', #333, 3.000000000000000000 ) ;
#162 = ORIENTED_EDGE ( 'NONE', *, *, #287, .T. ) ;
#163 = DIRECTION ( 'NONE',  ( 0.000000000000000000, 0.000000000000000000, 1.000000000000000000 ) ) ;
#164 = CARTESIAN_POINT ( 'NONE',  ( 0.000000000000000000, 0.000000000000000000, 0.000000000000000000 ) ) ;
#165 = PLANE ( 'NONE',  #158 ) ;
#166 = ORIENTED_EDGE ( 'NONE', *, *, #385, .T. ) ;
#167 = CYLINDRICAL_SURFACE ( 'NONE', #149, 6.000000000000000888 ) ;
#168 = CARTESIAN_POINT ( 'NONE',  ( -22.00000000000000355, 24.99999999999999645, 0.000000000000000000 ) ) ;
#169 = EDGE_LOOP ( 'NONE', ( #64, #463, #566, #13, #422, #211, #470, #82 ) ) ;
#170 = DIRECTION ( 'NONE',  ( 1.000000000000000000, 1.836970198721029688E-16, -0.000000000000000000 ) ) ;
#171 = DIRECTION ( 'NONE',  ( -1.000000000000000000, -1.836970198721029688E-16, 0.000000000000000000 ) ) ;
#172 = ORIENTED_EDGE ( 'NONE', *, *, #540, .F. ) ;
#173 = ADVANCED_FACE ( 'NONE', ( #554 ), #288, .T. ) ;
#174 = DIRECTION ( 'NONE',  ( -1.000000000000000000, 0.000000000000000000, 0.000000000000000000 ) ) ;
#175 = DIRECTION ( 'NONE',  ( 0.000000000000000000, 1.000000000000000000, 0.000000000000000000 ) ) ;
#176 = ORIENTED_EDGE ( 'NONE', *, *, #302, .T. ) ;
#177 = CYLINDRICAL_SURFACE ( 'NONE', #183, 1.500000000000001332 ) ;
#178 = EDGE_CURVE ( 'NONE', #46, #56, #252, .T. ) ;
#179 = DIRECTION ( 'NONE',  ( 0.000000000000000000, 1.000000000000000000, 0.000000000000000000 ) ) ;
#180 = CARTESIAN_POINT ( 'NONE',  ( -22.00000000000000355, 31.00000000000000355, 7.500000000000000000 ) ) ;
#181 = CLOSED_SHELL ( 'NONE', ( #460, #227, #220, #173, #186, #62, #442, #83, #117, #568, #159, #528, #74, #352, #558, #373 ) ) ;
#182 = LINE ( 'NONE', #281, #48 ) ;
#183 = AXIS2_PLACEMENT_3D ( 'NONE', #143, #327, #469 ) ;
#184 = EDGE_LOOP ( 'NONE', ( #231, #306, #366, #454 ) ) ;
#185 = VERTEX_POINT ( 'NONE', #221 ) ;
#186 = ADVANCED_FACE ( 'NONE', ( #330, #135, #516, #319 ), #103, .T. ) ;
#187 = AXIS2_PLACEMENT_3D ( 'NONE', #485, #545, #308 ) ;
#188 = CARTESIAN_POINT ( 'NONE',  ( -21.26340000000000074, 0.9599569354905336249, -7.500000000000000000 ) ) ;
#189 = ORIENTED_EDGE ( 'NONE', *, *, #146, .F. ) ;
#190 = VERTEX_POINT ( 'NONE', #51 ) ;
#191 =( REPRESENTATION_RELATIONSHIP ('NONE','NONE', #355, #245 ) REPRESENTATION_RELATIONSHIP_WITH_TRANSFORMATION ( #30 )SHAPE_REPRESENTATION_RELATIONSHIP( ) );
#192 = AXIS2_PLACEMENT_3D ( 'NONE', #86, #448, #301 ) ;
#193 = VERTEX_POINT ( 'NONE', #115 ) ;
#194 = CARTESIAN_POINT ( 'NONE',  ( -22.00000000000000000, -18.04004306450946871, -4.500000000000000888 ) ) ;
#195 = CARTESIAN_POINT ( 'NONE',  ( -24.99999999999999645, -21.04004306450946871, 4.500000000000000000 ) ) ;
#196 = VECTOR ( 'NONE', #367, 1000.000000000000000 ) ;
#197 = SHAPE_REPRESENTATION_RELATIONSHIP ( 'NONE' , 'NONE' ,  #245, #405 ) ;
#198 = ORIENTED_EDGE ( 'NONE', *, *, #287, .F. ) ;
#199 = EDGE_CURVE ( 'NONE', #477, #576, #415, .T. ) ;
#200 = AXIS2_PLACEMENT_3D ( 'NONE', #194, #441, #29 ) ;
#201 = PLANE ( 'NONE',  #346 ) ;
#202 = PRODUCT_CONTEXT ( 'NONE', #570, 'mechanical' ) ;
#203 = PRODUCT_DEFINITION_FORMATION_WITH_SPECIFIED_SOURCE ( 'ANY', '', #14, .NOT_KNOWN. ) ;
#204 = ORIENTED_EDGE ( 'NONE', *, *, #574, .T. ) ;
#205 = CIRCLE ( 'NONE', #257, 3.000000000000000000 ) ;
#206 = DIRECTION ( 'NONE',  ( -1.000000000000000000, 0.000000000000000000, 0.000000000000000000 ) ) ;
#207 = CARTESIAN_POINT ( 'NONE',  ( -25.00000000000000000, -16.54004306450946871, 0.000000000000000000 ) ) ;
#208 = ORIENTED_EDGE ( 'NONE', *, *, #32, .F. ) ;
#209 = CARTESIAN_POINT ( 'NONE',  ( -22.00000000000000000, -15.04004306450946871, 0.000000000000000000 ) ) ;
#210 = DIRECTION ( 'NONE',  ( 0.000000000000000000, 0.000000000000000000, 1.000000000000000000 ) ) ;
#211 = ORIENTED_EDGE ( 'NONE', *, *, #36, .T. ) ;
#212 = CARTESIAN_POINT ( 'NONE',  ( -25.00000000000000000, 31.00000000000000355, -7.500000000000000000 ) ) ;
#213 = EDGE_LOOP ( 'NONE', ( #172, #108, #518, #11 ) ) ;
#214 = DIRECTION ( 'NONE',  ( 1.000000000000000000, 0.000000000000000000, -3.491481338843133355E-15 ) ) ;
#215 = DIRECTION ( 'NONE',  ( -1.000000000000000000, -0.000000000000000000, -0.000000000000000000 ) ) ;
#216 = DIRECTION ( 'NONE',  ( 0.000000000000000000, -1.000000000000000000, 0.000000000000000000 ) ) ;
#217 = VECTOR ( 'NONE', #310, 1000.000000000000000 ) ;
#218 = CARTESIAN_POINT ( 'NONE',  ( 0.000000000000000000, 24.99999999999999645, 6.000000000000000888 ) ) ;
#219 = ORIENTED_EDGE ( 'NONE', *, *, #540, .T. ) ;
#220 = ADVANCED_FACE ( 'NONE', ( #248 ), #295, .F. ) ;
#221 = CARTESIAN_POINT ( 'NONE',  ( -24.99999999999999645, -21.04004306450946871, -4.500000000000000888 ) ) ;
#222 = CARTESIAN_POINT ( 'NONE',  ( -25.00000000000000000, -9.540043064509468707, 0.000000000000000000 ) ) ;
#223 = LINE ( 'NONE', #283, #258 ) ;
#224 = AXIS2_PLACEMENT_3D ( 'NONE', #246, #67, #438 ) ;
#225 = LINE ( 'NONE', #6, #481 ) ;
#226 = EDGE_LOOP ( 'NONE', ( #28, #482, #8, #204 ) ) ;
#227 = ADVANCED_FACE ( 'NONE', ( #354 ), #314, .F. ) ;
#228 = LINE ( 'NONE', #238, #99 ) ;
#229 = ORIENTED_EDGE ( 'NONE', *, *, #142, .T. ) ;
#230 = CARTESIAN_POINT ( 'NONE',  ( -22.00000000000000355, 31.00000000000000355, -7.500000000000000000 ) ) ;
#231 = ORIENTED_EDGE ( 'NONE', *, *, #19, .F. ) ;
#232 = CARTESIAN_POINT ( 'NONE',  ( -25.00000000000000000, 24.99999999999999645, -6.000000000000000888 ) ) ;
#233 = COLOUR_RGB ( '',0.7921568627450980005, 0.8196078431372548767, 0.9333333333333333481 ) ;
#234 = ORIENTED_EDGE ( 'NONE', *, *, #326, .T. ) ;
#235 = ORIENTED_EDGE ( 'NONE', *, *, #104, .F. ) ;
#236 = PRODUCT_DEFINITION ( 'UNKNOWN', '', #203, #276 ) ;
#237 = PRODUCT_DEFINITION_SHAPE ( 'NONE', 'NONE',  #595 ) ;
#238 = CARTESIAN_POINT ( 'NONE',  ( -21.26339999999999719, -18.04004306450946871, -7.500000000000000000 ) ) ;
#239 = DIRECTION ( 'NONE',  ( 1.000000000000000000, 1.836970198721030181E-16, 0.000000000000000000 ) ) ;
#240 = APPLICATION_PROTOCOL_DEFINITION ( 'draft international standard', 'automotive_design', 1998, #570 ) ;
#241 = VECTOR ( 'NONE', #88, 1000.000000000000000 ) ;
#242 = VECTOR ( 'NONE', #137, 1000.000000000000000 ) ;
#243 =( LENGTH_UNIT ( ) NAMED_UNIT ( * ) SI_UNIT ( .MILLI., .METRE. ) );
#244 = DIRECTION ( 'NONE',  ( 0.000000000000000000, 1.000000000000000000, 0.000000000000000000 ) ) ;
#245 = SHAPE_REPRESENTATION ( 'Robot 1_Odometry_Plat 2', ( #224 ), #348 ) ;
#246 = CARTESIAN_POINT ( 'NONE',  ( 0.000000000000000000, 0.000000000000000000, 0.000000000000000000 ) ) ;
#247 = EDGE_LOOP ( 'NONE', ( #340, #282 ) ) ;
#248 = FACE_OUTER_BOUND ( 'NONE', #184, .T. ) ;
#249 = CIRCLE ( 'NONE', #382, 1.500000000000001332 ) ;
#250 = AXIS2_PLACEMENT_3D ( 'NONE', #1, #170, #587 ) ;
#251 = ORIENTED_EDGE ( 'NONE', *, *, #359, .T. ) ;
#252 = CIRCLE ( 'NONE', #335, 2.999999999999999112 ) ;
#253 = ORIENTED_EDGE ( 'NONE', *, *, #419, .T. ) ;
#254 =( GEOMETRIC_REPRESENTATION_CONTEXT ( 3 ) GLOBAL_UNCERTAINTY_ASSIGNED_CONTEXT ( ( #420 ) ) GLOBAL_UNIT_ASSIGNED_CONTEXT ( ( #363, #72, #392 ) ) REPRESENTATION_CONTEXT ( 'NONE', 'WORKASPACE' ) );
#255 = DIRECTION ( 'NONE',  ( 1.000000000000000000, 0.000000000000000000, 0.000000000000000000 ) ) ;
#256 = LINE ( 'NONE', #120, #273 ) ;
#257 = AXIS2_PLACEMENT_3D ( 'NONE', #71, #393, #582 ) ;
#258 = VECTOR ( 'NONE', #16, 1000.000000000000000 ) ;
#259 = EDGE_CURVE ( 'NONE', #56, #523, #538, .T. ) ;
#260 = LINE ( 'NONE', #591, #560 ) ;
#261 = CARTESIAN_POINT ( 'NONE',  ( 0.000000000000000000, 24.99999999999999645, 0.000000000000000000 ) ) ;
#262 = ORIENTED_EDGE ( 'NONE', *, *, #10, .F. ) ;
#263 = DIRECTION ( 'NONE',  ( -3.491481338843133355E-15, 0.000000000000000000, -1.000000000000000000 ) ) ;
#264 = CARTESIAN_POINT ( 'NONE',  ( -25.00000000000000000, 31.00000000000000355, 4.500000000000000000 ) ) ;
#265 = CARTESIAN_POINT ( 'NONE',  ( -21.26340000000000074, 31.00000000000000355, -4.500000000000000888 ) ) ;
#266 = FACE_OUTER_BOUND ( 'NONE', #502, .T. ) ;
#267 = VERTEX_POINT ( 'NONE', #492 ) ;
#268 = AXIS2_PLACEMENT_3D ( 'NONE', #313, #214, #410 ) ;
#269 = CYLINDRICAL_SURFACE ( 'NONE', #440, 3.000000000000000000 ) ;
#270 = LINE ( 'NONE', #588, #534 ) ;
#271 = EDGE_CURVE ( 'NONE', #414, #153, #369, .T. ) ;
#272 = DIRECTION ( 'NONE',  ( 0.000000000000000000, 0.000000000000000000, 1.000000000000000000 ) ) ;
#273 = VECTOR ( 'NONE', #451, 1000.000000000000000 ) ;
#274 = DIRECTION ( 'NONE',  ( 1.000000000000000000, 1.836970198721030181E-16, 0.000000000000000000 ) ) ;
#275 = DIRECTION ( 'NONE',  ( -1.000000000000000000, 0.000000000000000000, 0.000000000000000000 ) ) ;
#276 = PRODUCT_DEFINITION_CONTEXT ( 'detailed design', #445, 'design' ) ;
#277 = LINE ( 'NONE', #412, #241 ) ;
#278 = SURFACE_STYLE_FILL_AREA ( #331 ) ;
#279 = ORIENTED_EDGE ( 'NONE', *, *, #112, .F. ) ;
#280 = AXIS2_PLACEMENT_3D ( 'NONE', #85, #94, #216 ) ;
#281 = CARTESIAN_POINT ( 'NONE',  ( -25.00000000000000000, 34.00000000000000000, 4.500000000000000000 ) ) ;
#282 = ORIENTED_EDGE ( 'NONE', *, *, #26, .F. ) ;
#283 = CARTESIAN_POINT ( 'NONE',  ( -22.00000000000000000, -21.04004306450946871, 7.500000000000000000 ) ) ;
#284 = AXIS2_PLACEMENT_3D ( 'NONE', #322, #12, #519 ) ;
#285 = ORIENTED_EDGE ( 'NONE', *, *, #475, .T. ) ;
#286 = ORIENTED_EDGE ( 'NONE', *, *, #142, .F. ) ;
#287 = EDGE_CURVE ( 'NONE', #134, #349, #320, .T. ) ;
#288 = PLANE ( 'NONE',  #544 ) ;
#289 = AXIS2_PLACEMENT_3D ( 'NONE', #207, #2, #175 ) ;
#290 = PRODUCT_DEFINITION_SHAPE ( 'NONE', 'NONE',  #378 ) ;
#291 = EDGE_CURVE ( 'NONE', #477, #589, #260, .T. ) ;
#292 = CARTESIAN_POINT ( 'NONE',  ( -25.00000000000000000, -9.540043064509468707, 0.000000000000000000 ) ) ;
#293 = ORIENTED_EDGE ( 'NONE', *, *, #593, .F. ) ;
#294 = ORIENTED_EDGE ( 'NONE', *, *, #199, .T. ) ;
#295 = CYLINDRICAL_SURFACE ( 'NONE', #397, 1.500000000000001332 ) ;
#296 = EDGE_LOOP ( 'NONE', ( #162, #234, #208, #253 ) ) ;
#297 = ORIENTED_EDGE ( 'NONE', *, *, #124, .F. ) ;
#298 = VECTOR ( 'NONE', #400, 1000.000000000000000 ) ;
#299 = CARTESIAN_POINT ( 'NONE',  ( -25.00000000000000000, 24.99999999999999645, 0.000000000000000000 ) ) ;
#300 = PLANE ( 'NONE',  #187 ) ;
#301 = DIRECTION ( 'NONE',  ( 0.000000000000000000, -1.000000000000000000, 0.000000000000000000 ) ) ;
#302 = EDGE_CURVE ( 'NONE', #193, #321, #494, .T. ) ;
#303 = AXIS2_PLACEMENT_3D ( 'NONE', #43, #484, #307 ) ;
#304 = CARTESIAN_POINT ( 'NONE',  ( -22.00000000000000355, 34.00000000000000000, 7.500000000000000000 ) ) ;
#305 = FACE_OUTER_BOUND ( 'NONE', #296, .T. ) ;
#306 = ORIENTED_EDGE ( 'NONE', *, *, #513, .T. ) ;
#307 = DIRECTION ( 'NONE',  ( 1.000000000000000000, 0.000000000000000000, 0.000000000000000000 ) ) ;
#308 = DIRECTION ( 'NONE',  ( 6.123233995736766036E-17, -1.000000000000000000, 0.000000000000000000 ) ) ;
#309 = FACE_OUTER_BOUND ( 'NONE', #515, .T. ) ;
#310 = DIRECTION ( 'NONE',  ( 0.000000000000000000, 0.000000000000000000, -1.000000000000000000 ) ) ;
#311 = ORIENTED_EDGE ( 'NONE', *, *, #19, .T. ) ;
#312 = EDGE_CURVE ( 'NONE', #193, #185, #509, .T. ) ;
#313 = CARTESIAN_POINT ( 'NONE',  ( 30.00000000000000000, 0.000000000000000000, -1.047444401652940007E-13 ) ) ;
#314 = CYLINDRICAL_SURFACE ( 'NONE', #96, 1.499999999999999556 ) ;
#315 = DIRECTION ( 'NONE',  ( 0.000000000000000000, 0.000000000000000000, 1.000000000000000000 ) ) ;
#316 = CARTESIAN_POINT ( 'NONE',  ( -22.00000000000000355, 34.00000000000000000, -4.500000000000000888 ) ) ;
#317 = FACE_BOUND ( 'NONE', #580, .T. ) ;
#318 = EDGE_LOOP ( 'NONE', ( #430, #311 ) ) ;
#319 = FACE_BOUND ( 'NONE', #342, .T. ) ;
#320 = LINE ( 'NONE', #304, #325 ) ;
#321 = VERTEX_POINT ( 'NONE', #212 ) ;
#322 = CARTESIAN_POINT ( 'NONE',  ( -22.00000000000000000, -18.04004306450946871, 4.500000000000000000 ) ) ;
#323 = CARTESIAN_POINT ( 'NONE',  ( -22.00000000000000000, -9.540043064509468707, 0.000000000000000000 ) ) ;
#324 = ORIENTED_EDGE ( 'NONE', *, *, #26, .T. ) ;
#325 = VECTOR ( 'NONE', #399, 1000.000000000000000 ) ;
#326 = EDGE_CURVE ( 'NONE', #349, #490, #277, .T. ) ;
#327 = DIRECTION ( 'NONE',  ( 1.000000000000000000, 1.836970198721030181E-16, 0.000000000000000000 ) ) ;
#328 =( LENGTH_UNIT ( ) NAMED_UNIT ( * ) SI_UNIT ( .MILLI., .METRE. ) );
#329 = ORIENTED_EDGE ( 'NONE', *, *, #178, .F. ) ;
#330 = FACE_BOUND ( 'NONE', #557, .T. ) ;
#331 = FILL_AREA_STYLE ('',( #514 ) ) ;
#332 = ORIENTED_EDGE ( 'NONE', *, *, #524, .T. ) ;
#333 = AXIS2_PLACEMENT_3D ( 'NONE', #458, #90, #272 ) ;
#334 = EDGE_CURVE ( 'NONE', #374, #462, #569, .T. ) ;
#335 = AXIS2_PLACEMENT_3D ( 'NONE', #59, #503, #147 ) ;
#336 = ORIENTED_EDGE ( 'NONE', *, *, #549, .F. ) ;
#337 = DIRECTION ( 'NONE',  ( 1.000000000000000000, 1.836970198721030181E-16, 0.000000000000000000 ) ) ;
#338 = AXIS2_PLACEMENT_3D ( 'NONE', #395, #356, #520 ) ;
#339 = PRODUCT_DEFINITION_SHAPE ( 'NONE', 'NONE',  #594 ) ;
#340 = ORIENTED_EDGE ( 'NONE', *, *, #15, .F. ) ;
#341 = VECTOR ( 'NONE', #535, 1000.000000000000000 ) ;
#342 = EDGE_LOOP ( 'NONE', ( #116, #262 ) ) ;
#343 = EDGE_CURVE ( 'NONE', #42, #376, #444, .T. ) ;
#344 = CARTESIAN_POINT ( 'NONE',  ( -25.00000000000000000, -16.54004306450946871, 0.000000000000000000 ) ) ;
#345 = DIRECTION ( 'NONE',  ( 0.000000000000000000, 1.000000000000000000, 0.000000000000000000 ) ) ;
#346 = AXIS2_PLACEMENT_3D ( 'NONE', #388, #529, #160 ) ;
#347 = VERTEX_POINT ( 'NONE', #209 ) ;
#348 =( GEOMETRIC_REPRESENTATION_CONTEXT ( 3 ) GLOBAL_UNCERTAINTY_ASSIGNED_CONTEXT ( ( #505 ) ) GLOBAL_UNIT_ASSIGNED_CONTEXT ( ( #243, #21, #150 ) ) REPRESENTATION_CONTEXT ( 'NONE', 'WORKASPACE' ) );
#349 = VERTEX_POINT ( 'NONE', #316 ) ;
#350 = AXIS2_PLACEMENT_3D ( 'NONE', #141, #556, #372 ) ;
#351 = DIRECTION ( 'NONE',  ( 0.000000000000000000, 1.000000000000000000, 0.000000000000000000 ) ) ;
#352 = ADVANCED_FACE ( 'NONE', ( #309 ), #269, .T. ) ;
#353 = LINE ( 'NONE', #218, #408 ) ;
#354 = FACE_OUTER_BOUND ( 'NONE', #22, .T. ) ;
#355 = SHAPE_REPRESENTATION ( 'Assem2', ( #54, #121, #268 ), #254 ) ;
#356 = DIRECTION ( 'NONE',  ( -1.000000000000000000, 0.000000000000000000, 0.000000000000000000 ) ) ;
#357 = ORIENTED_EDGE ( 'NONE', *, *, #513, .F. ) ;
#358 = FACE_BOUND ( 'NONE', #247, .T. ) ;
#359 = EDGE_CURVE ( 'NONE', #523, #61, #409, .T. ) ;
#360 = FACE_OUTER_BOUND ( 'NONE', #226, .T. ) ;
#361 = CARTESIAN_POINT ( 'NONE',  ( -22.00000000000000355, 24.99999999999999645, -6.000000000000000888 ) ) ;
#362 = ORIENTED_EDGE ( 'NONE', *, *, #154, .F. ) ;
#363 =( LENGTH_UNIT ( ) NAMED_UNIT ( * ) SI_UNIT ( .MILLI., .METRE. ) );
#364 = DIRECTION ( 'NONE',  ( 0.000000000000000000, 0.000000000000000000, 1.000000000000000000 ) ) ;
#365 = CARTESIAN_POINT ( 'NONE',  ( -22.00000000000000000, -11.04004306450947048, 1.836970198721029441E-16 ) ) ;
#366 = ORIENTED_EDGE ( 'NONE', *, *, #467, .T. ) ;
#367 = DIRECTION ( 'NONE',  ( 0.000000000000000000, 0.000000000000000000, -1.000000000000000000 ) ) ;
#368 = DIRECTION ( 'NONE',  ( 1.000000000000000000, 0.000000000000000000, 0.000000000000000000 ) ) ;
#369 = LINE ( 'NONE', #585, #242 ) ;
#370 = ORIENTED_EDGE ( 'NONE', *, *, #271, .F. ) ;
#371 = CARTESIAN_POINT ( 'NONE',  ( -22.00000000000000355, 34.00000000000000000, 4.500000000000000000 ) ) ;
#372 = DIRECTION ( 'NONE',  ( 0.000000000000000000, 1.000000000000000000, 0.000000000000000000 ) ) ;
#373 = ADVANCED_FACE ( 'NONE', ( #360 ), #167, .F. ) ;
#374 = VERTEX_POINT ( 'NONE', #550 ) ;
#375 = CARTESIAN_POINT ( 'NONE',  ( -22.00000000000000000, -21.04004306450946871, -4.500000000000000888 ) ) ;
#376 = VERTEX_POINT ( 'NONE', #132 ) ;
#377 = DIRECTION ( 'NONE',  ( 0.000000000000000000, 0.000000000000000000, -1.000000000000000000 ) ) ;
#378 = PRODUCT_DEFINITION ( 'UNKNOWN', '', #553, #52 ) ;
#379 = ORIENTED_EDGE ( 'NONE', *, *, #401, .T. ) ;
#380 = CIRCLE ( 'NONE', #564, 3.000000000000000000 ) ;
#381 = VERTEX_POINT ( 'NONE', #498 ) ;
#382 = AXIS2_PLACEMENT_3D ( 'NONE', #547, #274, #406 ) ;
#383 = CARTESIAN_POINT ( 'NONE',  ( -24.99999999999999645, -18.04004306450946871, 7.500000000000000000 ) ) ;
#384 = ORIENTED_EDGE ( 'NONE', *, *, #427, .T. ) ;
#385 = EDGE_CURVE ( 'NONE', #153, #349, #161, .T. ) ;
#386 = ORIENTED_EDGE ( 'NONE', *, *, #524, .F. ) ;
#387 = DIRECTION ( 'NONE',  ( 1.000000000000000000, 1.836970198721030181E-16, 0.000000000000000000 ) ) ;
#388 = CARTESIAN_POINT ( 'NONE',  ( -22.00000000000000000, -21.04004306450946871, 7.500000000000000000 ) ) ;
#389 = ITEM_DEFINED_TRANSFORMATION ( 'NONE', 'NONE', #268,  #224 ) ;
#390 = EDGE_CURVE ( 'NONE', #576, #477, #70, .T. ) ;
#391 = CIRCLE ( 'NONE', #136, 1.500000000000001332 ) ;
#392 =( NAMED_UNIT ( * ) SI_UNIT ( $, .STERADIAN. ) SOLID_ANGLE_UNIT ( ) );
#393 = DIRECTION ( 'NONE',  ( -1.000000000000000000, 0.000000000000000000, 0.000000000000000000 ) ) ;
#394 = CARTESIAN_POINT ( 'NONE',  ( -21.26339999999999719, -18.04004306450946871, 7.500000000000000000 ) ) ;
#395 = CARTESIAN_POINT ( 'NONE',  ( -25.00000000000000000, 24.99999999999999645, 0.000000000000000000 ) ) ;
#396 = ORIENTED_EDGE ( 'NONE', *, *, #291, .F. ) ;
#397 = AXIS2_PLACEMENT_3D ( 'NONE', #292, #156, #179 ) ;
#398 = DIRECTION ( 'NONE',  ( 1.000000000000000000, 0.000000000000000000, -3.491481338843133355E-15 ) ) ;
#399 = DIRECTION ( 'NONE',  ( 0.000000000000000000, 0.000000000000000000, -1.000000000000000000 ) ) ;
#400 = DIRECTION ( 'NONE',  ( 1.000000000000000000, 1.836970198721030181E-16, 0.000000000000000000 ) ) ;
#401 = EDGE_CURVE ( 'NONE', #561, #476, #92, .T. ) ;
#402 = ORIENTED_EDGE ( 'NONE', *, *, #291, .T. ) ;
#403 = LINE ( 'NONE', #590, #452 ) ;
#404 = DIRECTION ( 'NONE',  ( -1.000000000000000000, 0.000000000000000000, 0.000000000000000000 ) ) ;
#405 = ADVANCED_BREP_SHAPE_REPRESENTATION ( '', ( #575, #224 ), #348 ) ;
#406 = DIRECTION ( 'NONE',  ( 0.000000000000000000, 1.000000000000000000, 0.000000000000000000 ) ) ;
#407 = EDGE_LOOP ( 'NONE', ( #357, #87, #384, #379 ) ) ;
#408 = VECTOR ( 'NONE', #536, 1000.000000000000000 ) ;
#409 = CIRCLE ( 'NONE', #250, 2.999999999999999112 ) ;
#410 = DIRECTION ( 'NONE',  ( -3.491481338843133355E-15, 0.000000000000000000, -1.000000000000000000 ) ) ;
#411 = CARTESIAN_POINT ( 'NONE',  ( -22.00000000000000000, -21.04004306450946871, -4.500000000000000888 ) ) ;
#412 = CARTESIAN_POINT ( 'NONE',  ( -25.00000000000000000, 34.00000000000000000, -4.500000000000000888 ) ) ;
#413 = FACE_OUTER_BOUND ( 'NONE', #496, .T. ) ;
#414 = VERTEX_POINT ( 'NONE', #421 ) ;
#415 = CIRCLE ( 'NONE', #567, 1.499999999999999556 ) ;
#416 = CYLINDRICAL_SURFACE ( 'NONE', #60, 3.000000000000000000 ) ;
#417 = DIRECTION ( 'NONE',  ( 1.000000000000000000, 1.836970198721030181E-16, 0.000000000000000000 ) ) ;
#418 = EDGE_LOOP ( 'NONE', ( #286, #332, #468, #131 ) ) ;
#419 = EDGE_CURVE ( 'NONE', #381, #134, #182, .T. ) ;
#420 = UNCERTAINTY_MEASURE_WITH_UNIT (LENGTH_MEASURE( 1.000000000000000082E-05 ), #363, 'distance_accuracy_value', 'NONE');
#421 = CARTESIAN_POINT ( 'NONE',  ( -22.00000000000000000, -18.04004306450946871, -7.500000000000000000 ) ) ;
#422 = ORIENTED_EDGE ( 'NONE', *, *, #32, .T. ) ;
#423 = SURFACE_SIDE_STYLE ('',( #278 ) ) ;
#424 = ORIENTED_EDGE ( 'NONE', *, *, #467, .F. ) ;
#425 = DIRECTION ( 'NONE',  ( 1.000000000000000000, 0.000000000000000000, 0.000000000000000000 ) ) ;
#426 = ORIENTED_EDGE ( 'NONE', *, *, #154, .T. ) ;
#427 = EDGE_CURVE ( 'NONE', #42, #561, #225, .T. ) ;
#428 = VECTOR ( 'NONE', #487, 1000.000000000000000 ) ;
#429 = CYLINDRICAL_SURFACE ( 'NONE', #284, 2.999999999999999112 ) ;
#430 = ORIENTED_EDGE ( 'NONE', *, *, #343, .T. ) ;
#431 = AXIS2_PLACEMENT_3D ( 'NONE', #323, #510, #97 ) ;
#432 = CARTESIAN_POINT ( 'NONE',  ( -25.00000000000000000, -8.040043064509466930, 0.000000000000000000 ) ) ;
#433 = APPLICATION_PROTOCOL_DEFINITION ( 'draft international standard', 'automotive_design', 1998, #445 ) ;
#434 = VECTOR ( 'NONE', #541, 1000.000000000000000 ) ;
#435 = EDGE_CURVE ( 'NONE', #46, #185, #480, .T. ) ;
#436 = CARTESIAN_POINT ( 'NONE',  ( -22.00000000000000000, -16.54004306450946871, 0.000000000000000000 ) ) ;
#437 = SHAPE_DEFINITION_REPRESENTATION ( #63, #355 ) ;
#438 = DIRECTION ( 'NONE',  ( 1.000000000000000000, 0.000000000000000000, 0.000000000000000000 ) ) ;
#439 = CARTESIAN_POINT ( 'NONE',  ( -25.00000000000000000, -9.540043064509468707, 0.000000000000000000 ) ) ;
#440 = AXIS2_PLACEMENT_3D ( 'NONE', #265, #404, #129 ) ;
#441 = DIRECTION ( 'NONE',  ( 1.000000000000000000, 1.836970198721029688E-16, -0.000000000000000000 ) ) ;
#442 = ADVANCED_FACE ( 'NONE', ( #358, #495, #539, #317 ), #50, .F. ) ;
#443 = CARTESIAN_POINT ( 'NONE',  ( -22.00000000000000000, -16.54004306450946871, 0.000000000000000000 ) ) ;
#444 = CIRCLE ( 'NONE', #5, 1.500000000000001332 ) ;
#445 = APPLICATION_CONTEXT ( 'automotive_design' ) ;
#446 = APPLICATION_PROTOCOL_DEFINITION ( 'draft international standard', 'automotive_design', 1998, #107 ) ;
#447 = CARTESIAN_POINT ( 'NONE',  ( -25.00000000000000000, 31.00000000000000355, 4.500000000000000000 ) ) ;
#448 = DIRECTION ( 'NONE',  ( -1.000000000000000000, -1.836970198721029688E-16, 0.000000000000000000 ) ) ;
#449 = DIRECTION ( 'NONE',  ( 0.000000000000000000, 0.000000000000000000, 1.000000000000000000 ) ) ;
#450 = DIRECTION ( 'NONE',  ( -1.000000000000000000, 0.000000000000000000, 0.000000000000000000 ) ) ;
#451 = DIRECTION ( 'NONE',  ( -1.000000000000000000, -1.836970198721029688E-16, 0.000000000000000000 ) ) ;
#452 = VECTOR ( 'NONE', #128, 1000.000000000000000 ) ;
#453 = DIRECTION ( 'NONE',  ( -1.000000000000000000, 0.000000000000000000, 0.000000000000000000 ) ) ;
#454 = ORIENTED_EDGE ( 'NONE', *, *, #427, .F. ) ;
#455 = DIRECTION ( 'NONE',  ( 1.000000000000000000, 1.836970198721030181E-16, 0.000000000000000000 ) ) ;
#456 = DIRECTION ( 'NONE',  ( 1.000000000000000000, 1.836970198721030181E-16, 0.000000000000000000 ) ) ;
#457 = CIRCLE ( 'NONE', #20, 6.000000000000000888 ) ;
#458 = CARTESIAN_POINT ( 'NONE',  ( -22.00000000000000355, 31.00000000000000355, -4.500000000000000888 ) ) ;
#459 = CARTESIAN_POINT ( 'NONE',  ( -25.00000000000000000, 34.00000000000000000, -4.500000000000000888 ) ) ;
#460 = ADVANCED_FACE ( 'NONE', ( #489 ), #583, .F. ) ;
#461 = DIRECTION ( 'NONE',  ( 0.000000000000000000, 0.000000000000000000, 1.000000000000000000 ) ) ;
#462 = VERTEX_POINT ( 'NONE', #361 ) ;
#463 = ORIENTED_EDGE ( 'NONE', *, *, #178, .T. ) ;
#464 = DIRECTION ( 'NONE',  ( 1.000000000000000000, 0.000000000000000000, 0.000000000000000000 ) ) ;
#465 = EDGE_LOOP ( 'NONE', ( #370, #18, #176, #426 ) ) ;
#466 = DIRECTION ( 'NONE',  ( 1.000000000000000000, 1.836970198721029688E-16, -0.000000000000000000 ) ) ;
#467 = EDGE_CURVE ( 'NONE', #476, #561, #249, .T. ) ;
#468 = ORIENTED_EDGE ( 'NONE', *, *, #435, .T. ) ;
#469 = DIRECTION ( 'NONE',  ( 0.000000000000000000, 1.000000000000000000, 0.000000000000000000 ) ) ;
#470 = ORIENTED_EDGE ( 'NONE', *, *, #302, .F. ) ;
#471 = DIRECTION ( 'NONE',  ( 0.000000000000000000, 1.000000000000000000, 0.000000000000000000 ) ) ;
#472 = SURFACE_STYLE_USAGE ( .BOTH. , #423 ) ;
#473 = ORIENTED_EDGE ( 'NONE', *, *, #104, .T. ) ;
#474 = ORIENTED_EDGE ( 'NONE', *, *, #55, .T. ) ;
#475 = EDGE_CURVE ( 'NONE', #134, #123, #380, .T. ) ;
#476 = VERTEX_POINT ( 'NONE', #365 ) ;
#477 = VERTEX_POINT ( 'NONE', #500 ) ;
#478 = DIRECTION ( 'NONE',  ( 1.000000000000000000, 1.836970198721030181E-16, 0.000000000000000000 ) ) ;
#479 = PRODUCT_RELATED_PRODUCT_CATEGORY ( 'part', '', ( #14 ) ) ;
#480 = LINE ( 'NONE', #586, #217 ) ;
#481 = VECTOR ( 'NONE', #387, 1000.000000000000000 ) ;
#482 = ORIENTED_EDGE ( 'NONE', *, *, #334, .F. ) ;
#483 = AXIS2_PLACEMENT_3D ( 'NONE', #93, #275, #461 ) ;
#484 = DIRECTION ( 'NONE',  ( 0.000000000000000000, 0.000000000000000000, 1.000000000000000000 ) ) ;
#485 = CARTESIAN_POINT ( 'NONE',  ( -21.26340000000000074, 0.2233569354905332038, 7.500000000000000000 ) ) ;
#486 = STYLED_ITEM ( 'NONE', ( #17 ), #575 ) ;
#487 = DIRECTION ( 'NONE',  ( -1.836970198721029688E-16, 1.000000000000000000, 0.000000000000000000 ) ) ;
#488 = CARTESIAN_POINT ( 'NONE',  ( -24.99999999999999645, -21.04004306450946871, -7.500000000000000000 ) ) ;
#489 = FACE_OUTER_BOUND ( 'NONE', #213, .T. ) ;
#490 = VERTEX_POINT ( 'NONE', #459 ) ;
#491 = EDGE_CURVE ( 'NONE', #374, #267, #353, .T. ) ;
#492 = CARTESIAN_POINT ( 'NONE',  ( -25.00000000000000000, 24.99999999999999645, 6.000000000000000888 ) ) ;
#493 = CARTESIAN_POINT ( 'NONE',  ( -22.00000000000000000, -18.04004306450946871, 7.500000000000000000 ) ) ;
#494 = LINE ( 'NONE', #488, #434 ) ;
#495 = FACE_BOUND ( 'NONE', #527, .T. ) ;
#496 = EDGE_LOOP ( 'NONE', ( #396, #98, #102, #512 ) ) ;
#497 = FACE_OUTER_BOUND ( 'NONE', #106, .T. ) ;
#498 = CARTESIAN_POINT ( 'NONE',  ( -25.00000000000000000, 34.00000000000000000, 4.500000000000000000 ) ) ;
#499 = CIRCLE ( 'NONE', #581, 1.499999999999999556 ) ;
#500 = CARTESIAN_POINT ( 'NONE',  ( -25.00000000000000000, -18.04004306450946871, 1.836970198721028701E-16 ) ) ;
#501 = EDGE_CURVE ( 'NONE', #576, #347, #81, .T. ) ;
#502 = EDGE_LOOP ( 'NONE', ( #532, #189, #552, #293 ) ) ;
#503 = DIRECTION ( 'NONE',  ( -1.000000000000000000, -1.836970198721029688E-16, 0.000000000000000000 ) ) ;
#504 = AXIS2_PLACEMENT_3D ( 'NONE', #45, #171, #122 ) ;
#505 = UNCERTAINTY_MEASURE_WITH_UNIT (LENGTH_MEASURE( 1.000000000000000082E-05 ), #243, 'distance_accuracy_value', 'NONE');
#506 = DIRECTION ( 'NONE',  ( 1.000000000000000000, 1.836970198721030181E-16, 0.000000000000000000 ) ) ;
#507 = CARTESIAN_POINT ( 'NONE',  ( -25.00000000000000000, -15.04004306450946871, 0.000000000000000000 ) ) ;
#508 = CARTESIAN_POINT ( 'NONE',  ( -22.00000000000000000, -21.04004306450946871, 7.500000000000000000 ) ) ;
#509 = CIRCLE ( 'NONE', #280, 2.999999999999999112 ) ;
#510 = DIRECTION ( 'NONE',  ( 1.000000000000000000, 1.836970198721030181E-16, 0.000000000000000000 ) ) ;
#511 = VECTOR ( 'NONE', #555, 1000.000000000000000 ) ;
#512 = ORIENTED_EDGE ( 'NONE', *, *, #15, .T. ) ;
#513 = EDGE_CURVE ( 'NONE', #376, #476, #270, .T. ) ;
#514 = FILL_AREA_STYLE_COLOUR ( '', #233 ) ;
#515 = EDGE_LOOP ( 'NONE', ( #157, #95, #543, #362 ) ) ;
#516 = FACE_OUTER_BOUND ( 'NONE', #169, .T. ) ;
#517 = AXIS2_PLACEMENT_3D ( 'NONE', #261, #91, #210 ) ;
#518 = ORIENTED_EDGE ( 'NONE', *, *, #10, .T. ) ;
#519 = DIRECTION ( 'NONE',  ( 0.000000000000000000, -1.000000000000000000, 0.000000000000000000 ) ) ;
#520 = DIRECTION ( 'NONE',  ( 0.000000000000000000, 0.000000000000000000, 1.000000000000000000 ) ) ;
#521 = ORIENTED_EDGE ( 'NONE', *, *, #419, .F. ) ;
#522 = PRESENTATION_LAYER_ASSIGNMENT (  '', '', ( #486 ) ) ;
#523 = VERTEX_POINT ( 'NONE', #493 ) ;
#524 = EDGE_CURVE ( 'NONE', #61, #46, #256, .T. ) ;
#525 = CIRCLE ( 'NONE', #65, 6.000000000000000888 ) ;
#526 = CARTESIAN_POINT ( 'NONE',  ( -22.00000000000000000, -18.04004306450946871, 1.836970198721028701E-16 ) ) ;
#527 = EDGE_LOOP ( 'NONE', ( #109, #424 ) ) ;
#528 = ADVANCED_FACE ( 'NONE', ( #266 ), #542, .T. ) ;
#529 = DIRECTION ( 'NONE',  ( 1.836970198721029688E-16, -1.000000000000000000, 0.000000000000000000 ) ) ;
#530 = CIRCLE ( 'NONE', #39, 3.000000000000000000 ) ;
#531 = ORIENTED_EDGE ( 'NONE', *, *, #124, .T. ) ;
#532 = ORIENTED_EDGE ( 'NONE', *, *, #55, .F. ) ;
#533 = APPLICATION_PROTOCOL_DEFINITION ( 'draft international standard', 'automotive_design', 1998, #548 ) ;
#534 = VECTOR ( 'NONE', #456, 1000.000000000000000 ) ;
#535 = DIRECTION ( 'NONE',  ( 0.000000000000000000, 0.000000000000000000, -1.000000000000000000 ) ) ;
#536 = DIRECTION ( 'NONE',  ( -1.000000000000000000, 0.000000000000000000, 0.000000000000000000 ) ) ;
#537 = DIRECTION ( 'NONE',  ( 0.000000000000000000, 0.000000000000000000, 1.000000000000000000 ) ) ;
#538 = LINE ( 'NONE', #394, #511 ) ;
#539 = FACE_OUTER_BOUND ( 'NONE', #571, .T. ) ;
#540 = EDGE_CURVE ( 'NONE', #462, #374, #457, .T. ) ;
#541 = DIRECTION ( 'NONE',  ( -1.836970198721029688E-16, 1.000000000000000000, 0.000000000000000000 ) ) ;
#542 = CYLINDRICAL_SURFACE ( 'NONE', #192, 2.999999999999999112 ) ;
#543 = ORIENTED_EDGE ( 'NONE', *, *, #385, .F. ) ;
#544 = AXIS2_PLACEMENT_3D ( 'NONE', #188, #377, #49 ) ;
#545 = DIRECTION ( 'NONE',  ( 0.000000000000000000, 0.000000000000000000, 1.000000000000000000 ) ) ;
#546 = CARTESIAN_POINT ( 'NONE',  ( 0.000000000000000000, 24.99999999999999645, 0.000000000000000000 ) ) ;
#547 = CARTESIAN_POINT ( 'NONE',  ( -22.00000000000000000, -9.540043064509468707, 0.000000000000000000 ) ) ;
#548 = APPLICATION_CONTEXT ( 'automotive_design' ) ;
#549 = EDGE_CURVE ( 'NONE', #56, #190, #592, .T. ) ;
#550 = CARTESIAN_POINT ( 'NONE',  ( -22.00000000000000355, 24.99999999999999645, 6.000000000000000888 ) ) ;
#551 = DIRECTION ( 'NONE',  ( 0.000000000000000000, 1.000000000000000000, 0.000000000000000000 ) ) ;
#552 = ORIENTED_EDGE ( 'NONE', *, *, #312, .F. ) ;
#553 = PRODUCT_DEFINITION_FORMATION_WITH_SPECIFIED_SOURCE ( 'ANY', '', #565, .NOT_KNOWN. ) ;
#554 = FACE_OUTER_BOUND ( 'NONE', #465, .T. ) ;
#555 = DIRECTION ( 'NONE',  ( 1.000000000000000000, 1.836970198721029688E-16, -0.000000000000000000 ) ) ;
#556 = DIRECTION ( 'NONE',  ( 1.000000000000000000, 1.836970198721030181E-16, 0.000000000000000000 ) ) ;
#557 = EDGE_LOOP ( 'NONE', ( #139, #294 ) ) ;
#558 = ADVANCED_FACE ( 'NONE', ( #305 ), #165, .T. ) ;
#559 = VECTOR ( 'NONE', #215, 1000.000000000000000 ) ;
#560 = VECTOR ( 'NONE', #506, 1000.000000000000000 ) ;
#561 = VERTEX_POINT ( 'NONE', #89 ) ;
#562 = FACE_OUTER_BOUND ( 'NONE', #407, .T. ) ;
#563 = CARTESIAN_POINT ( 'NONE',  ( -22.00000000000000355, 31.00000000000000355, -7.500000000000000000 ) ) ;
#564 = AXIS2_PLACEMENT_3D ( 'NONE', #126, #37, #163 ) ;
#565 = PRODUCT ( 'Robot 1_Odometry_Plat 2', 'Robot 1_Odometry_Plat 2', '', ( #27 ) ) ;
#566 = ORIENTED_EDGE ( 'NONE', *, *, #549, .T. ) ;
#567 = AXIS2_PLACEMENT_3D ( 'NONE', #344, #337, #471 ) ;
#568 = ADVANCED_FACE ( 'NONE', ( #413 ), #34, .F. ) ;
#569 = CIRCLE ( 'NONE', #578, 6.000000000000000888 ) ;
#570 = APPLICATION_CONTEXT ( 'automotive_design' ) ;
#571 = EDGE_LOOP ( 'NONE', ( #297, #251, #229, #474, #148, #166, #198, #285 ) ) ;
#572 = CARTESIAN_POINT ( 'NONE',  ( -22.00000000000000000, -21.04004306450946871, 4.500000000000000000 ) ) ;
#573 = FACE_OUTER_BOUND ( 'NONE', #418, .T. ) ;
#574 = EDGE_CURVE ( 'NONE', #267, #145, #152, .T. ) ;
#575 = MANIFOLD_SOLID_BREP ( 'Flat-Pattern', #181 ) ;
#576 = VERTEX_POINT ( 'NONE', #507 ) ;
#577 = CONTEXT_DEPENDENT_SHAPE_REPRESENTATION ( #191, #339 ) ;
#578 = AXIS2_PLACEMENT_3D ( 'NONE', #53, #450, #125 ) ;
#579 = DIRECTION ( 'NONE',  ( -1.000000000000000000, -1.836970198721029688E-16, 0.000000000000000000 ) ) ;
#580 = EDGE_LOOP ( 'NONE', ( #127, #219 ) ) ;
#581 = AXIS2_PLACEMENT_3D ( 'NONE', #443, #68, #244 ) ;
#582 = DIRECTION ( 'NONE',  ( 0.000000000000000000, 0.000000000000000000, 1.000000000000000000 ) ) ;
#583 = CYLINDRICAL_SURFACE ( 'NONE', #517, 6.000000000000000888 ) ;
#584 = DIRECTION ( 'NONE',  ( 0.000000000000000000, 0.000000000000000000, -1.000000000000000000 ) ) ;
#585 = CARTESIAN_POINT ( 'NONE',  ( -22.00000000000000000, -21.04004306450946871, -7.500000000000000000 ) ) ;
#586 = CARTESIAN_POINT ( 'NONE',  ( -24.99999999999999645, -21.04004306450946871, 7.500000000000000000 ) ) ;
#587 = DIRECTION ( 'NONE',  ( 0.000000000000000000, -1.000000000000000000, 0.000000000000000000 ) ) ;
#588 = CARTESIAN_POINT ( 'NONE',  ( -25.00000000000000000, -11.04004306450947048, 1.836970198721030427E-16 ) ) ;
#589 = VERTEX_POINT ( 'NONE', #526 ) ;
#590 = CARTESIAN_POINT ( 'NONE',  ( 0.000000000000000000, 24.99999999999999645, -6.000000000000000888 ) ) ;
#591 = CARTESIAN_POINT ( 'NONE',  ( -25.00000000000000000, -18.04004306450946871, 1.836970198721030181E-16 ) ) ;
#592 = LINE ( 'NONE', #130, #428 ) ;
#593 = EDGE_CURVE ( 'NONE', #414, #193, #228, .T. ) ;
#594 = NEXT_ASSEMBLY_USAGE_OCCURRENCE ( 'NAUO1', ' ', ' ', #236, #378, $ ) ;
#595 = NEXT_ASSEMBLY_USAGE_OCCURRENCE ( 'NAUO2', ' ', ' ', #236, #378, $ ) ;
ENDSEC;
END-ISO-10303-21;
